M48
; DRILL file KiCad 10.0.3 date 2026-06-28T19:17:12
; FORMAT={-:-/ absolute / metric / decimal}
; #@! TF.CreationDate,2026-06-28T19:17:12-04:00
; #@! TF.GenerationSoftware,Kicad,Pcbnew,10.0.3
; #@! TF.FileFunction,Plated,1,2,PTH
FMAT,2
METRIC
; #@! TA.AperFunction,Plated,PTH,ComponentDrill
T1C0.200
; #@! TA.AperFunction,Plated,PTH,ComponentDrill
T2C0.600
; #@! TA.AperFunction,Plated,PTH,ComponentDrill
T3C1.000
%
G90
G05
T1
X139.345Y-75.037
X139.345Y-76.562
X140.107Y-74.275
X140.107Y-75.8
X140.107Y-77.325
X140.87Y-75.037
X140.87Y-76.562
X141.632Y-74.275
X141.632Y-75.8
X141.632Y-77.325
X142.395Y-75.037
X142.395Y-76.562
T3
X118.6Y-75.25
X118.6Y-77.79
X118.6Y-80.33
X118.6Y-82.87
X118.6Y-85.41
X118.6Y-87.95
X179.32Y-75.8
X181.86Y-75.8
X184.4Y-75.8
X186.94Y-75.8
T2
G00X137.28Y-136.12
M15
G01X137.28Y-137.22
M16
G05
G00X137.28Y-140.55
M15
G01X137.28Y-141.15
M16
G05
G00X145.92Y-136.12
M15
G01X145.92Y-137.22
M16
G05
G00X145.92Y-140.55
M15
G01X145.92Y-141.15
M16
G05
M30
