%TF.GenerationSoftware,KiCad,Pcbnew,10.0.3*%
%TF.CreationDate,2026-06-28T19:16:54-04:00*%
%TF.ProjectId,spectrum_analyzer,73706563-7472-4756-9d5f-616e616c797a,rev?*%
%TF.SameCoordinates,Original*%
%TF.FileFunction,Soldermask,Top*%
%TF.FilePolarity,Negative*%
%FSLAX46Y46*%
G04 Gerber Fmt 4.6, Leading zero omitted, Abs format (unit mm)*
G04 Created by KiCad (PCBNEW 10.0.3) date 2026-06-28 19:16:54*
%MOMM*%
%LPD*%
G01*
G04 APERTURE LIST*
G04 Aperture macros list*
%AMRoundRect*
0 Rectangle with rounded corners*
0 $1 Rounding radius*
0 $2 $3 $4 $5 $6 $7 $8 $9 X,Y pos of 4 corners*
0 Add a 4 corners polygon primitive as box body*
4,1,4,$2,$3,$4,$5,$6,$7,$8,$9,$2,$3,0*
0 Add four circle primitives for the rounded corners*
1,1,$1+$1,$2,$3*
1,1,$1+$1,$4,$5*
1,1,$1+$1,$6,$7*
1,1,$1+$1,$8,$9*
0 Add four rect primitives between the rounded corners*
20,1,$1+$1,$2,$3,$4,$5,0*
20,1,$1+$1,$4,$5,$6,$7,0*
20,1,$1+$1,$6,$7,$8,$9,0*
20,1,$1+$1,$8,$9,$2,$3,0*%
G04 Aperture macros list end*
%ADD10RoundRect,0.075000X-0.075000X0.125000X-0.075000X-0.125000X0.075000X-0.125000X0.075000X0.125000X0*%
%ADD11RoundRect,0.140000X0.170000X-0.140000X0.170000X0.140000X-0.170000X0.140000X-0.170000X-0.140000X0*%
%ADD12RoundRect,0.075000X-0.125000X-0.075000X0.125000X-0.075000X0.125000X0.075000X-0.125000X0.075000X0*%
%ADD13R,1.500000X0.900000*%
%ADD14R,0.900000X1.500000*%
%ADD15C,0.600000*%
%ADD16R,4.200000X4.200000*%
%ADD17C,0.650000*%
%ADD18RoundRect,0.150000X-0.150000X-0.575000X0.150000X-0.575000X0.150000X0.575000X-0.150000X0.575000X0*%
%ADD19RoundRect,0.075000X-0.075000X-0.650000X0.075000X-0.650000X0.075000X0.650000X-0.075000X0.650000X0*%
%ADD20O,1.000000X2.100000*%
%ADD21O,1.000000X1.600000*%
%ADD22RoundRect,0.170000X-0.680000X-0.680000X0.680000X-0.680000X0.680000X0.680000X-0.680000X0.680000X0*%
%ADD23C,1.700000*%
%ADD24RoundRect,0.375000X-0.625000X-0.375000X0.625000X-0.375000X0.625000X0.375000X-0.625000X0.375000X0*%
%ADD25RoundRect,0.500000X-0.500000X-1.400000X0.500000X-1.400000X0.500000X1.400000X-0.500000X1.400000X0*%
%ADD26RoundRect,0.140000X-0.140000X-0.170000X0.140000X-0.170000X0.140000X0.170000X-0.140000X0.170000X0*%
%ADD27R,1.700000X1.700000*%
G04 APERTURE END LIST*
D10*
%TO.C,R1*%
X130800000Y-70075000D03*
X130800000Y-70575000D03*
%TD*%
D11*
%TO.C,C3*%
X180000000Y-72560000D03*
X180000000Y-71600000D03*
%TD*%
D12*
%TO.C,R2*%
X136425000Y-133600000D03*
X136925000Y-133600000D03*
%TD*%
D13*
%TO.C,U2*%
X132800000Y-68460000D03*
X132800000Y-69730000D03*
X132800000Y-71000000D03*
X132800000Y-72270000D03*
X132800000Y-73540000D03*
X132800000Y-74810000D03*
X132800000Y-76080000D03*
X132800000Y-77350000D03*
X132800000Y-78620000D03*
X132800000Y-79890000D03*
X132800000Y-81160000D03*
X132800000Y-82430000D03*
X132800000Y-83700000D03*
X132800000Y-84970000D03*
D14*
X135840000Y-86220000D03*
X137110000Y-86220000D03*
X138380000Y-86220000D03*
X139650000Y-86220000D03*
X140920000Y-86220000D03*
X142190000Y-86220000D03*
X143460000Y-86220000D03*
X144730000Y-86220000D03*
X146000000Y-86220000D03*
X147270000Y-86220000D03*
D13*
X150300000Y-84970000D03*
X150300000Y-83700000D03*
X150300000Y-82430000D03*
X150300000Y-81160000D03*
X150300000Y-79890000D03*
X150300000Y-78620000D03*
X150300000Y-77350000D03*
X150300000Y-76080000D03*
X150300000Y-74810000D03*
X150300000Y-73540000D03*
X150300000Y-72270000D03*
X150300000Y-71000000D03*
X150300000Y-69730000D03*
X150300000Y-68460000D03*
D15*
X139345000Y-75037500D03*
X139345000Y-76562500D03*
X140107500Y-74275000D03*
X140107500Y-75800000D03*
X140107500Y-77325000D03*
X140870000Y-75037500D03*
D16*
X140870000Y-75800000D03*
D15*
X140870000Y-76562500D03*
X141632500Y-74275000D03*
X141632500Y-75800000D03*
X141632500Y-77325000D03*
X142395000Y-75037500D03*
X142395000Y-76562500D03*
%TD*%
D17*
%TO.C,J2*%
X138710000Y-137200000D03*
X144490000Y-137200000D03*
D18*
X138350000Y-135755000D03*
X139150000Y-135755000D03*
D19*
X140350000Y-135755000D03*
X141350000Y-135755000D03*
X141850000Y-135755000D03*
X142850000Y-135755000D03*
D18*
X144050000Y-135755000D03*
X144850000Y-135755000D03*
X144850000Y-135755000D03*
X144050000Y-135755000D03*
D19*
X143350000Y-135755000D03*
X142350000Y-135755000D03*
X140850000Y-135755000D03*
X139850000Y-135755000D03*
D18*
X139150000Y-135755000D03*
X138350000Y-135755000D03*
D20*
X137280000Y-136670000D03*
D21*
X137280000Y-140850000D03*
D20*
X145920000Y-136670000D03*
D21*
X145920000Y-140850000D03*
%TD*%
D22*
%TO.C,U3*%
X179320000Y-75800000D03*
D23*
X181860000Y-75800000D03*
X184400000Y-75800000D03*
X186940000Y-75800000D03*
%TD*%
D11*
%TO.C,C1*%
X118600000Y-70880000D03*
X118600000Y-69920000D03*
%TD*%
D24*
%TO.C,U1*%
X158350000Y-136700000D03*
X158350000Y-139000000D03*
D25*
X164650000Y-139000000D03*
D24*
X158350000Y-141300000D03*
%TD*%
D26*
%TO.C,C2*%
X167000000Y-139000000D03*
X167960000Y-139000000D03*
%TD*%
D27*
%TO.C,J1*%
X118600000Y-87950000D03*
D23*
X118600000Y-85410000D03*
X118600000Y-82870000D03*
X118600000Y-80330000D03*
X118600000Y-77790000D03*
X118600000Y-75250000D03*
%TD*%
D12*
%TO.C,R3*%
X146675000Y-133400000D03*
X147175000Y-133400000D03*
%TD*%
M02*
