%TF.GenerationSoftware,KiCad,Pcbnew,10.0.3*%
%TF.CreationDate,2026-06-28T19:16:54-04:00*%
%TF.ProjectId,spectrum_analyzer,73706563-7472-4756-9d5f-616e616c797a,rev?*%
%TF.SameCoordinates,Original*%
%TF.FileFunction,Copper,L1,Top*%
%TF.FilePolarity,Positive*%
%FSLAX46Y46*%
G04 Gerber Fmt 4.6, Leading zero omitted, Abs format (unit mm)*
G04 Created by KiCad (PCBNEW 10.0.3) date 2026-06-28 19:16:54*
%MOMM*%
%LPD*%
G01*
G04 APERTURE LIST*
G04 Aperture macros list*
%AMRoundRect*
0 Rectangle with rounded corners*
0 $1 Rounding radius*
0 $2 $3 $4 $5 $6 $7 $8 $9 X,Y pos of 4 corners*
0 Add a 4 corners polygon primitive as box body*
4,1,4,$2,$3,$4,$5,$6,$7,$8,$9,$2,$3,0*
0 Add four circle primitives for the rounded corners*
1,1,$1+$1,$2,$3*
1,1,$1+$1,$4,$5*
1,1,$1+$1,$6,$7*
1,1,$1+$1,$8,$9*
0 Add four rect primitives between the rounded corners*
20,1,$1+$1,$2,$3,$4,$5,0*
20,1,$1+$1,$4,$5,$6,$7,0*
20,1,$1+$1,$6,$7,$8,$9,0*
20,1,$1+$1,$8,$9,$2,$3,0*%
G04 Aperture macros list end*
%TA.AperFunction,SMDPad,CuDef*%
%ADD10RoundRect,0.075000X-0.075000X0.125000X-0.075000X-0.125000X0.075000X-0.125000X0.075000X0.125000X0*%
%TD*%
%TA.AperFunction,SMDPad,CuDef*%
%ADD11RoundRect,0.140000X0.170000X-0.140000X0.170000X0.140000X-0.170000X0.140000X-0.170000X-0.140000X0*%
%TD*%
%TA.AperFunction,SMDPad,CuDef*%
%ADD12RoundRect,0.075000X-0.125000X-0.075000X0.125000X-0.075000X0.125000X0.075000X-0.125000X0.075000X0*%
%TD*%
%TA.AperFunction,SMDPad,CuDef*%
%ADD13R,1.500000X0.900000*%
%TD*%
%TA.AperFunction,SMDPad,CuDef*%
%ADD14R,0.900000X1.500000*%
%TD*%
%TA.AperFunction,SMDPad,CuDef*%
%ADD15R,1.050000X1.050000*%
%TD*%
%TA.AperFunction,HeatsinkPad*%
%ADD16C,0.600000*%
%TD*%
%TA.AperFunction,HeatsinkPad*%
%ADD17R,4.200000X4.200000*%
%TD*%
%TA.AperFunction,SMDPad,CuDef*%
%ADD18RoundRect,0.150000X-0.150000X-0.575000X0.150000X-0.575000X0.150000X0.575000X-0.150000X0.575000X0*%
%TD*%
%TA.AperFunction,SMDPad,CuDef*%
%ADD19RoundRect,0.075000X-0.075000X-0.650000X0.075000X-0.650000X0.075000X0.650000X-0.075000X0.650000X0*%
%TD*%
%TA.AperFunction,ComponentPad*%
%ADD20O,1.000000X2.100000*%
%TD*%
%TA.AperFunction,ComponentPad*%
%ADD21O,1.000000X1.600000*%
%TD*%
%TA.AperFunction,ComponentPad*%
%ADD22RoundRect,0.170000X-0.680000X-0.680000X0.680000X-0.680000X0.680000X0.680000X-0.680000X0.680000X0*%
%TD*%
%TA.AperFunction,ComponentPad*%
%ADD23C,1.700000*%
%TD*%
%TA.AperFunction,SMDPad,CuDef*%
%ADD24RoundRect,0.375000X-0.625000X-0.375000X0.625000X-0.375000X0.625000X0.375000X-0.625000X0.375000X0*%
%TD*%
%TA.AperFunction,SMDPad,CuDef*%
%ADD25RoundRect,0.500000X-0.500000X-1.400000X0.500000X-1.400000X0.500000X1.400000X-0.500000X1.400000X0*%
%TD*%
%TA.AperFunction,SMDPad,CuDef*%
%ADD26RoundRect,0.140000X-0.140000X-0.170000X0.140000X-0.170000X0.140000X0.170000X-0.140000X0.170000X0*%
%TD*%
%TA.AperFunction,ComponentPad*%
%ADD27R,1.700000X1.700000*%
%TD*%
%TA.AperFunction,Conductor*%
%ADD28C,0.200000*%
%TD*%
G04 APERTURE END LIST*
D10*
%TO.P,R1,1*%
%TO.N,+3V3*%
X130800000Y-70075000D03*
%TO.P,R1,2*%
%TO.N,Net-(U2-EN)*%
X130800000Y-70575000D03*
%TD*%
D11*
%TO.P,C3,1*%
%TO.N,+3V3*%
X180000000Y-72560000D03*
%TO.P,C3,2*%
%TO.N,GND*%
X180000000Y-71600000D03*
%TD*%
D12*
%TO.P,R2,1*%
%TO.N,GND*%
X136425000Y-133600000D03*
%TO.P,R2,2*%
%TO.N,Net-(J2-CC1)*%
X136925000Y-133600000D03*
%TD*%
D13*
%TO.P,U2,1,GND_1*%
%TO.N,GND*%
X132800000Y-68460000D03*
%TO.P,U2,2,VDD_2*%
%TO.N,+3V3*%
X132800000Y-69730000D03*
%TO.P,U2,3,EN_3*%
%TO.N,Net-(U2-EN)*%
X132800000Y-71000000D03*
%TO.P,U2,4,SENSOR_VP_4*%
%TO.N,unconnected-(U2-SENSOR_VP-Pad4)*%
X132800000Y-72270000D03*
%TO.P,U2,5,SENSOR_VN_5*%
%TO.N,unconnected-(U2-SENSOR_VN-Pad5)*%
X132800000Y-73540000D03*
%TO.P,U2,6,IO34_6*%
%TO.N,unconnected-(U2-IO34-Pad6)*%
X132800000Y-74810000D03*
%TO.P,U2,7,IO35_7*%
%TO.N,unconnected-(U2-IO35-Pad7)*%
X132800000Y-76080000D03*
%TO.P,U2,8,IO32_8*%
%TO.N,unconnected-(U2-IO32-Pad8)*%
X132800000Y-77350000D03*
%TO.P,U2,9,IO33_9*%
%TO.N,/I2S_SD*%
X132800000Y-78620000D03*
%TO.P,U2,10,IO25_10*%
%TO.N,/I2S_WS*%
X132800000Y-79890000D03*
%TO.P,U2,11,IO26_11*%
%TO.N,/I2S_SCK*%
X132800000Y-81160000D03*
%TO.P,U2,12,IO27_12*%
%TO.N,unconnected-(U2-IO27-Pad12)*%
X132800000Y-82430000D03*
%TO.P,U2,13,IO14_13*%
%TO.N,unconnected-(U2-IO14-Pad13)*%
X132800000Y-83700000D03*
%TO.P,U2,14,IO12_14*%
%TO.N,unconnected-(U2-IO12-Pad14)*%
X132800000Y-84970000D03*
D14*
%TO.P,U2,15,GND_15*%
%TO.N,GND*%
X135840000Y-86220000D03*
%TO.P,U2,16,IO13_16*%
%TO.N,unconnected-(U2-IO13-Pad16)*%
X137110000Y-86220000D03*
%TO.P,U2,17,SHD/SD2_17*%
%TO.N,unconnected-(U2-SHD{slash}SD2-Pad17)*%
X138380000Y-86220000D03*
%TO.P,U2,18,SWP/SD3_18*%
%TO.N,unconnected-(U2-SWP{slash}SD3-Pad18)*%
X139650000Y-86220000D03*
%TO.P,U2,19,SCS/CMD_19*%
%TO.N,unconnected-(U2-SCS{slash}CMD-Pad19)*%
X140920000Y-86220000D03*
%TO.P,U2,20,SCK/CLK_20*%
%TO.N,unconnected-(U2-SCK{slash}CLK-Pad20)*%
X142190000Y-86220000D03*
%TO.P,U2,21,SDO/SD0_21*%
%TO.N,unconnected-(U2-SDO{slash}SD0-Pad21)*%
X143460000Y-86220000D03*
%TO.P,U2,22,SDI/SD1_22*%
%TO.N,unconnected-(U2-SDI{slash}SD1-Pad22)*%
X144730000Y-86220000D03*
%TO.P,U2,23,IO15_23*%
%TO.N,unconnected-(U2-IO15-Pad23)*%
X146000000Y-86220000D03*
%TO.P,U2,24,IO2_24*%
%TO.N,unconnected-(U2-IO2-Pad24)*%
X147270000Y-86220000D03*
D13*
%TO.P,U2,25,IO0_25*%
%TO.N,unconnected-(U2-IO0-Pad25)*%
X150300000Y-84970000D03*
%TO.P,U2,26,IO4_26*%
%TO.N,unconnected-(U2-IO4-Pad26)*%
X150300000Y-83700000D03*
%TO.P,U2,27,IO16_27*%
%TO.N,unconnected-(U2-IO16-Pad27)*%
X150300000Y-82430000D03*
%TO.P,U2,28,IO17_28*%
%TO.N,unconnected-(U2-IO17-Pad28)*%
X150300000Y-81160000D03*
%TO.P,U2,29,IO5_29*%
%TO.N,unconnected-(U2-IO5-Pad29)*%
X150300000Y-79890000D03*
%TO.P,U2,30,IO18_30*%
%TO.N,unconnected-(U2-IO18-Pad30)*%
X150300000Y-78620000D03*
%TO.P,U2,31,IO19_31*%
%TO.N,unconnected-(U2-IO19-Pad31)*%
X150300000Y-77350000D03*
%TO.P,U2,32,NC_32*%
%TO.N,unconnected-(U2-NC-Pad32)*%
X150300000Y-76080000D03*
%TO.P,U2,33,IO21_33*%
%TO.N,/I2C_SDA*%
X150300000Y-74810000D03*
%TO.P,U2,34,RXD0/IO3_34*%
%TO.N,unconnected-(U2-RXD0{slash}IO3-Pad34)*%
X150300000Y-73540000D03*
%TO.P,U2,35,TXD0/IO1_35*%
%TO.N,unconnected-(U2-TXD0{slash}IO1-Pad35)*%
X150300000Y-72270000D03*
%TO.P,U2,36,IO22_36*%
%TO.N,/I2C_SCL*%
X150300000Y-71000000D03*
%TO.P,U2,37,IO23_37*%
%TO.N,unconnected-(U2-IO23-Pad37)*%
X150300000Y-69730000D03*
%TO.P,U2,38,GND_38*%
%TO.N,GND*%
X150300000Y-68460000D03*
D15*
%TO.P,U2,39,GND_39*%
X139345000Y-74275000D03*
D16*
X139345000Y-75037500D03*
D15*
X139345000Y-75800000D03*
D16*
X139345000Y-76562500D03*
D15*
X139345000Y-77325000D03*
D16*
X140107500Y-74275000D03*
X140107500Y-75800000D03*
X140107500Y-77325000D03*
D15*
X140870000Y-74275000D03*
D16*
X140870000Y-75037500D03*
D15*
X140870000Y-75800000D03*
D17*
X140870000Y-75800000D03*
D16*
X140870000Y-76562500D03*
D15*
X140870000Y-77325000D03*
D16*
X141632500Y-74275000D03*
X141632500Y-75800000D03*
X141632500Y-77325000D03*
D15*
X142395000Y-74275000D03*
D16*
X142395000Y-75037500D03*
D15*
X142395000Y-75800000D03*
D16*
X142395000Y-76562500D03*
D15*
X142395000Y-77325000D03*
%TD*%
D18*
%TO.P,J2,A1,GND_A1*%
%TO.N,GND*%
X138350000Y-135755000D03*
%TO.P,J2,A4,VBUS_A4*%
%TO.N,VCC*%
X139150000Y-135755000D03*
D19*
%TO.P,J2,A5,CC1_A5*%
%TO.N,Net-(J2-CC1)*%
X140350000Y-135755000D03*
%TO.P,J2,A6,D+_A6*%
%TO.N,unconnected-(J2-D+-PadA6)*%
X141350000Y-135755000D03*
%TO.P,J2,A7,D-_A7*%
%TO.N,unconnected-(J2-D--PadA7)*%
X141850000Y-135755000D03*
%TO.P,J2,A8,SBU1_A8*%
%TO.N,unconnected-(J2-SBU1-PadA8)*%
X142850000Y-135755000D03*
D18*
%TO.P,J2,A9,VBUS_A9*%
%TO.N,VCC*%
X144050000Y-135755000D03*
%TO.P,J2,A12,GND_A12*%
%TO.N,GND*%
X144850000Y-135755000D03*
%TO.P,J2,B1,GND_B1*%
X144850000Y-135755000D03*
%TO.P,J2,B4,VBUS_B4*%
%TO.N,VCC*%
X144050000Y-135755000D03*
D19*
%TO.P,J2,B5,CC2_B5*%
%TO.N,Net-(J2-CC2)*%
X143350000Y-135755000D03*
%TO.P,J2,B6,D+_B6*%
%TO.N,unconnected-(J2-D+-PadB6)*%
X142350000Y-135755000D03*
%TO.P,J2,B7,D-_B7*%
%TO.N,unconnected-(J2-D--PadB7)*%
X140850000Y-135755000D03*
%TO.P,J2,B8,SBU2_B8*%
%TO.N,unconnected-(J2-SBU2-PadB8)*%
X139850000Y-135755000D03*
D18*
%TO.P,J2,B9,VBUS_B9*%
%TO.N,VCC*%
X139150000Y-135755000D03*
%TO.P,J2,B12,GND_B12*%
%TO.N,GND*%
X138350000Y-135755000D03*
D20*
%TO.P,J2,SH,SHIELD_SH*%
%TO.N,unconnected-(J2-SHIELD-PadSH)*%
X137280000Y-136670000D03*
D21*
%TO.N,unconnected-(J2-SHIELD-PadSH)_3*%
X137280000Y-140850000D03*
D20*
%TO.N,unconnected-(J2-SHIELD-PadSH)_1*%
X145920000Y-136670000D03*
D21*
%TO.N,unconnected-(J2-SHIELD-PadSH)_2*%
X145920000Y-140850000D03*
%TD*%
D22*
%TO.P,U3,1,GND_1*%
%TO.N,GND*%
X179320000Y-75800000D03*
D23*
%TO.P,U3,2,VCC_2*%
%TO.N,+3V3*%
X181860000Y-75800000D03*
%TO.P,U3,3,SCL_3*%
%TO.N,/I2C_SCL*%
X184400000Y-75800000D03*
%TO.P,U3,4,SDA_4*%
%TO.N,/I2C_SDA*%
X186940000Y-75800000D03*
%TD*%
D11*
%TO.P,C1,1*%
%TO.N,+3V3*%
X118600000Y-70880000D03*
%TO.P,C1,2*%
%TO.N,GND*%
X118600000Y-69920000D03*
%TD*%
D24*
%TO.P,U1,1,GND_1*%
%TO.N,GND*%
X158350000Y-136700000D03*
%TO.P,U1,2,VO_2*%
%TO.N,+3V3*%
X158350000Y-139000000D03*
D25*
X164650000Y-139000000D03*
D24*
%TO.P,U1,3,VI_3*%
%TO.N,VCC*%
X158350000Y-141300000D03*
%TD*%
D26*
%TO.P,C2,1*%
%TO.N,+3V3*%
X167000000Y-139000000D03*
%TO.P,C2,2*%
%TO.N,GND*%
X167960000Y-139000000D03*
%TD*%
D27*
%TO.P,J1,1,Pin_1_1*%
%TO.N,+3V3*%
X118600000Y-87950000D03*
D23*
%TO.P,J1,2,Pin_2_2*%
%TO.N,GND*%
X118600000Y-85410000D03*
%TO.P,J1,3,Pin_3_3*%
%TO.N,/I2S_SCK*%
X118600000Y-82870000D03*
%TO.P,J1,4,Pin_4_4*%
%TO.N,/I2S_WS*%
X118600000Y-80330000D03*
%TO.P,J1,5,Pin_5_5*%
%TO.N,/I2S_SD*%
X118600000Y-77790000D03*
%TO.P,J1,6,Pin_6_6*%
%TO.N,GND*%
X118600000Y-75250000D03*
%TD*%
D12*
%TO.P,R3,1*%
%TO.N,Net-(J2-CC2)*%
X146675000Y-133400000D03*
%TO.P,R3,2*%
%TO.N,GND*%
X147175000Y-133400000D03*
%TD*%
%TO.N,GND*%
D28*
X118600000Y-85410000D02*
X118910000Y-85720000D01*
X133850000Y-68980000D02*
X119563866Y-68980000D01*
X117990000Y-70553866D02*
X117990000Y-74640000D01*
X118910000Y-85720000D02*
X133850000Y-85720000D01*
X133850000Y-85720000D02*
X133850000Y-68980000D01*
X119563866Y-68980000D02*
X117990000Y-70553866D01*
X117990000Y-74640000D02*
X118600000Y-75250000D01*
X180000000Y-71600000D02*
X176860000Y-68460000D01*
X176860000Y-68460000D02*
X150300000Y-68460000D01*
X179320000Y-75800000D02*
X179320000Y-72280000D01*
X179320000Y-72280000D02*
X180000000Y-71600000D01*
%TO.N,+3V3*%
X180000000Y-72560000D02*
X180000000Y-74450610D01*
X117508578Y-45870000D02*
X117350000Y-46028578D01*
X180000000Y-74450610D02*
X182899390Y-77350000D01*
X117350000Y-75626346D02*
X118123654Y-76400000D01*
X182899390Y-77350000D02*
X187582032Y-77350000D01*
X187582032Y-77350000D02*
X188490000Y-76442031D01*
X188490000Y-76442031D02*
X188490000Y-68768578D01*
X188490000Y-68768578D02*
X165591422Y-45870000D01*
X165591422Y-45870000D02*
X117508578Y-45870000D01*
X117350000Y-46028578D02*
X117350000Y-75626346D01*
X118123654Y-76400000D02*
X124210000Y-76400000D01*
X124210000Y-76400000D02*
X130880000Y-69730000D01*
X130880000Y-69730000D02*
X132800000Y-69730000D01*
%TO.N,GND*%
X150300000Y-68460000D02*
X150830000Y-68460000D01*
X151750000Y-85885685D02*
X151515685Y-86120000D01*
X150830000Y-68460000D02*
X151750000Y-69380000D01*
X151750000Y-69380000D02*
X151750000Y-85885685D01*
X149084314Y-86120000D02*
X140870000Y-77905686D01*
X140870000Y-77905686D02*
X140870000Y-75800000D01*
X151515685Y-86120000D02*
X149084314Y-86120000D01*
%TO.N,+3V3*%
X180000000Y-72560000D02*
X180000000Y-73940000D01*
X180000000Y-73940000D02*
X181860000Y-75800000D01*
%TO.N,/I2C_SCL*%
X184400000Y-75800000D02*
X185550000Y-76950000D01*
X185550000Y-76950000D02*
X187416346Y-76950000D01*
X180076346Y-67310000D02*
X149084315Y-67310000D01*
X187416346Y-76950000D02*
X188090000Y-76276346D01*
X188090000Y-76276346D02*
X188090000Y-75323654D01*
X188090000Y-75323654D02*
X180076346Y-67310000D01*
X151350000Y-71520000D02*
X150830000Y-71000000D01*
X149084315Y-67310000D02*
X148850000Y-67544315D01*
X148850000Y-67544315D02*
X148850000Y-85320000D01*
X148850000Y-85320000D02*
X149250000Y-85720000D01*
X149250000Y-85720000D02*
X151350000Y-85720000D01*
X151350000Y-85720000D02*
X151350000Y-71520000D01*
X150830000Y-71000000D02*
X150300000Y-71000000D01*
%TO.N,/I2C_SDA*%
X186940000Y-75800000D02*
X178850000Y-67710000D01*
X178850000Y-67710000D02*
X149250000Y-67710000D01*
X149250000Y-67710000D02*
X149250000Y-74250000D01*
X149810000Y-74810000D02*
X150300000Y-74810000D01*
X149250000Y-74250000D02*
X149810000Y-74810000D01*
%TO.N,+3V3*%
X118600000Y-87950000D02*
X117450000Y-86800000D01*
X118123654Y-76400000D02*
X119076346Y-76400000D01*
X119750000Y-75726346D02*
X119750000Y-72030000D01*
X117450000Y-86800000D02*
X117450000Y-77073654D01*
X117450000Y-77073654D02*
X118123654Y-76400000D01*
X119076346Y-76400000D02*
X119750000Y-75726346D01*
X119750000Y-72030000D02*
X118600000Y-70880000D01*
%TO.N,/I2S_SCK*%
X118600000Y-82870000D02*
X120310000Y-81160000D01*
X120310000Y-81160000D02*
X132800000Y-81160000D01*
%TO.N,/I2S_WS*%
X118600000Y-80330000D02*
X132360000Y-80330000D01*
X132360000Y-80330000D02*
X132800000Y-79890000D01*
%TO.N,/I2S_SD*%
X118600000Y-77790000D02*
X119430000Y-78620000D01*
X119430000Y-78620000D02*
X132800000Y-78620000D01*
%TO.N,GND*%
X118600000Y-75250000D02*
X117750000Y-74400000D01*
X117750000Y-74400000D02*
X117750000Y-70770000D01*
X117750000Y-70770000D02*
X118600000Y-69920000D01*
%TO.N,+3V3*%
X118600000Y-70880000D02*
X119750000Y-69730000D01*
X119750000Y-69730000D02*
X132800000Y-69730000D01*
X118600000Y-70880000D02*
X119405000Y-70075000D01*
X119405000Y-70075000D02*
X130800000Y-70075000D01*
%TO.N,GND*%
X132800000Y-68460000D02*
X133750000Y-68460000D01*
X139345000Y-74055000D02*
X139345000Y-74275000D01*
X133750000Y-68460000D02*
X139345000Y-74055000D01*
%TO.N,Net-(U2-EN)*%
X130800000Y-70575000D02*
X132375000Y-70575000D01*
X132375000Y-70575000D02*
X132800000Y-71000000D01*
%TO.N,+3V3*%
X130800000Y-70075000D02*
X132455000Y-70075000D01*
X132455000Y-70075000D02*
X132800000Y-69730000D01*
%TO.N,GND*%
X132800000Y-68460000D02*
X120060000Y-68460000D01*
X120060000Y-68460000D02*
X118600000Y-69920000D01*
%TO.N,+3V3*%
X167000000Y-139000000D02*
X167610000Y-139610000D01*
X167610000Y-139610000D02*
X168286134Y-139610000D01*
X168286134Y-139610000D02*
X181860000Y-126036134D01*
X181860000Y-126036134D02*
X181860000Y-75800000D01*
X164650000Y-139000000D02*
X158350000Y-139000000D01*
X167000000Y-139000000D02*
X164650000Y-139000000D01*
%TO.N,GND*%
X136425000Y-133367590D02*
X136842590Y-132950000D01*
X136425000Y-133600000D02*
X136425000Y-134129999D01*
X136425000Y-134129999D02*
X136425000Y-133367590D01*
X158350000Y-136700000D02*
X165660000Y-136700000D01*
X165660000Y-136700000D02*
X167960000Y-139000000D01*
X147175000Y-133733629D02*
X145153629Y-135755000D01*
X147175000Y-133729999D02*
X145149999Y-135755000D01*
X136842590Y-132950000D02*
X146957410Y-132950000D01*
X147175000Y-133400000D02*
X147175000Y-133733629D01*
X138050001Y-135755000D02*
X136425000Y-134129999D01*
X135840000Y-80067500D02*
X140107500Y-75800000D01*
X150475000Y-136700000D02*
X147175000Y-133400000D01*
X158350000Y-136700000D02*
X158100000Y-136700000D01*
X135840000Y-86220000D02*
X135840000Y-131947410D01*
X158350000Y-136700000D02*
X150475000Y-136700000D01*
X145149999Y-135755000D02*
X144850000Y-135755000D01*
X138350000Y-135755000D02*
X138050001Y-135755000D01*
X135840000Y-86220000D02*
X135840000Y-80067500D01*
X146957410Y-132950000D02*
X147175000Y-133167590D01*
X158100000Y-136700000D02*
X157775000Y-136375000D01*
X145153629Y-135755000D02*
X144850000Y-135755000D01*
X147175000Y-133167590D02*
X147175000Y-133729999D01*
X135840000Y-131947410D02*
X136842590Y-132950000D01*
%TO.N,Net-(J2-CC1)*%
X140350000Y-134997590D02*
X140350000Y-135755000D01*
X138952410Y-133600000D02*
X140350000Y-134997590D01*
X136925000Y-133600000D02*
X138952410Y-133600000D01*
%TO.N,VCC*%
X158350000Y-141300000D02*
X148194594Y-141300000D01*
X144050000Y-136365000D02*
X144050000Y-135755000D01*
X139150000Y-136350000D02*
X139580000Y-136780000D01*
X143635000Y-136780000D02*
X144050000Y-136365000D01*
X148194594Y-141300000D02*
X144769594Y-137875000D01*
X139150000Y-135755000D02*
X139150000Y-136350000D01*
X144769594Y-137875000D02*
X144210406Y-137875000D01*
X144210406Y-137875000D02*
X143815000Y-137479594D01*
X143815000Y-137479594D02*
X143815000Y-135990000D01*
X143815000Y-135990000D02*
X144050000Y-135755000D01*
X139580000Y-136780000D02*
X143635000Y-136780000D01*
%TO.N,Net-(J2-CC2)*%
X144980001Y-133400000D02*
X143350000Y-135030001D01*
X146675000Y-133400000D02*
X144980001Y-133400000D01*
X143350000Y-135030001D02*
X143350000Y-135755000D01*
%TD*%
%TA.AperFunction,Conductor*%
%TO.N,GND*%
G36*
X118137620Y-71591212D02*
G01*
X118173605Y-71612494D01*
X118214587Y-71624400D01*
X118329002Y-71657642D01*
X118329005Y-71657642D01*
X118329007Y-71657643D01*
X118365310Y-71660500D01*
X118479903Y-71660500D01*
X118546942Y-71680185D01*
X118567584Y-71696819D01*
X119113181Y-72242416D01*
X119146666Y-72303739D01*
X119149500Y-72330097D01*
X119149500Y-73838397D01*
X119129815Y-73905436D01*
X119077011Y-73951191D01*
X119007853Y-73961135D01*
X118987183Y-73956328D01*
X118916134Y-73933243D01*
X118916127Y-73933242D01*
X118706246Y-73900000D01*
X118493754Y-73900000D01*
X118283872Y-73933242D01*
X118283869Y-73933242D01*
X118112818Y-73988820D01*
X118042976Y-73990815D01*
X117983144Y-73954734D01*
X117952316Y-73892033D01*
X117950500Y-73870889D01*
X117950500Y-71697945D01*
X117970185Y-71630906D01*
X118022989Y-71585151D01*
X118092147Y-71575207D01*
X118137620Y-71591212D01*
G37*
%TD.AperFunction*%
%TA.AperFunction,Conductor*%
G36*
X189961471Y-44399820D02*
G01*
X190028500Y-44419532D01*
X190074233Y-44472355D01*
X190085418Y-44523820D01*
X190085418Y-143310292D01*
X190065733Y-143377331D01*
X190012929Y-143423086D01*
X189961418Y-143434292D01*
X116406798Y-143434292D01*
X116339759Y-143414607D01*
X116294004Y-143361803D01*
X116282798Y-143310241D01*
X116283641Y-141248543D01*
X136279499Y-141248543D01*
X136317947Y-141441829D01*
X136317950Y-141441839D01*
X136393364Y-141623907D01*
X136393371Y-141623920D01*
X136502860Y-141787781D01*
X136502863Y-141787785D01*
X136642214Y-141927136D01*
X136642218Y-141927139D01*
X136806079Y-142036628D01*
X136806092Y-142036635D01*
X136988160Y-142112049D01*
X136988165Y-142112051D01*
X136988169Y-142112051D01*
X136988170Y-142112052D01*
X137181456Y-142150500D01*
X137181459Y-142150500D01*
X137378543Y-142150500D01*
X137508582Y-142124632D01*
X137571835Y-142112051D01*
X137753914Y-142036632D01*
X137917782Y-141927139D01*
X138057139Y-141787782D01*
X138166632Y-141623914D01*
X138242051Y-141441835D01*
X138280500Y-141248541D01*
X138280500Y-140451459D01*
X138280500Y-140451456D01*
X138242052Y-140258170D01*
X138242051Y-140258169D01*
X138242051Y-140258165D01*
X138213528Y-140189304D01*
X138166635Y-140076092D01*
X138166628Y-140076079D01*
X138057139Y-139912218D01*
X138057136Y-139912214D01*
X137917785Y-139772863D01*
X137917781Y-139772860D01*
X137753920Y-139663371D01*
X137753907Y-139663364D01*
X137571839Y-139587950D01*
X137571829Y-139587947D01*
X137378543Y-139549500D01*
X137378541Y-139549500D01*
X137181459Y-139549500D01*
X137181457Y-139549500D01*
X136988170Y-139587947D01*
X136988160Y-139587950D01*
X136806092Y-139663364D01*
X136806079Y-139663371D01*
X136642218Y-139772860D01*
X136642214Y-139772863D01*
X136502863Y-139912214D01*
X136502860Y-139912218D01*
X136393371Y-140076079D01*
X136393364Y-140076092D01*
X136317950Y-140258160D01*
X136317947Y-140258170D01*
X136279500Y-140451456D01*
X136279500Y-140451459D01*
X136279500Y-141248541D01*
X136279500Y-141248543D01*
X136279499Y-141248543D01*
X116283641Y-141248543D01*
X116283969Y-140445316D01*
X116299439Y-102588923D01*
X116310426Y-75705400D01*
X116749498Y-75705400D01*
X116790424Y-75858133D01*
X116804465Y-75882452D01*
X116804466Y-75882454D01*
X116869477Y-75995058D01*
X116869481Y-75995063D01*
X116988349Y-76113931D01*
X116988355Y-76113936D01*
X117186737Y-76312318D01*
X117191074Y-76320262D01*
X117198323Y-76325688D01*
X117207559Y-76350450D01*
X117220222Y-76373641D01*
X117219576Y-76382669D01*
X117222740Y-76391152D01*
X117217123Y-76416971D01*
X117215238Y-76443333D01*
X117209418Y-76452387D01*
X117207888Y-76459425D01*
X117186739Y-76487677D01*
X117081286Y-76593132D01*
X117081285Y-76593132D01*
X117081284Y-76593133D01*
X116969481Y-76704936D01*
X116969479Y-76704939D01*
X116961814Y-76718216D01*
X116936506Y-76762051D01*
X116908391Y-76810747D01*
X116897216Y-76830104D01*
X116890423Y-76841869D01*
X116849499Y-76994597D01*
X116849499Y-76994599D01*
X116849499Y-77162700D01*
X116849500Y-77162713D01*
X116849500Y-86713330D01*
X116849499Y-86713348D01*
X116849499Y-86879054D01*
X116849498Y-86879054D01*
X116849499Y-86879057D01*
X116890423Y-87031785D01*
X116908658Y-87063368D01*
X116949206Y-87133600D01*
X116969479Y-87168715D01*
X117088349Y-87287585D01*
X117088355Y-87287590D01*
X117213181Y-87412416D01*
X117246666Y-87473739D01*
X117249500Y-87500097D01*
X117249500Y-88847870D01*
X117249501Y-88847876D01*
X117255908Y-88907483D01*
X117306202Y-89042328D01*
X117306206Y-89042335D01*
X117392452Y-89157544D01*
X117392455Y-89157547D01*
X117507664Y-89243793D01*
X117507671Y-89243797D01*
X117642517Y-89294091D01*
X117642516Y-89294091D01*
X117649444Y-89294835D01*
X117702127Y-89300500D01*
X119497872Y-89300499D01*
X119557483Y-89294091D01*
X119692331Y-89243796D01*
X119807546Y-89157546D01*
X119893796Y-89042331D01*
X119944091Y-88907483D01*
X119950500Y-88847873D01*
X119950499Y-87052128D01*
X119946814Y-87017844D01*
X134890000Y-87017844D01*
X134896401Y-87077372D01*
X134896403Y-87077379D01*
X134946645Y-87212086D01*
X134946649Y-87212093D01*
X135032809Y-87327187D01*
X135032812Y-87327190D01*
X135147906Y-87413350D01*
X135147913Y-87413354D01*
X135282620Y-87463596D01*
X135282627Y-87463598D01*
X135342155Y-87469999D01*
X135342172Y-87470000D01*
X135590000Y-87470000D01*
X135590000Y-86470000D01*
X134890000Y-86470000D01*
X134890000Y-87017844D01*
X119946814Y-87017844D01*
X119944091Y-86992517D01*
X119893796Y-86857669D01*
X119893795Y-86857668D01*
X119893793Y-86857664D01*
X119807547Y-86742455D01*
X119807544Y-86742452D01*
X119692335Y-86656206D01*
X119692328Y-86656202D01*
X119557482Y-86605908D01*
X119557483Y-86605908D01*
X119497883Y-86599501D01*
X119497881Y-86599500D01*
X119497873Y-86599500D01*
X119497865Y-86599500D01*
X119487309Y-86599500D01*
X119457868Y-86590855D01*
X119427882Y-86584332D01*
X119422866Y-86580577D01*
X119420270Y-86579815D01*
X119399628Y-86563181D01*
X118729409Y-85892962D01*
X118792993Y-85875925D01*
X118907007Y-85810099D01*
X119000099Y-85717007D01*
X119065925Y-85602993D01*
X119082962Y-85539408D01*
X119715270Y-86171717D01*
X119715270Y-86171716D01*
X119754622Y-86117554D01*
X119851095Y-85928217D01*
X119916757Y-85726130D01*
X119916757Y-85726127D01*
X119950000Y-85516246D01*
X119950000Y-85303753D01*
X119916757Y-85093872D01*
X119916757Y-85093869D01*
X119851095Y-84891782D01*
X119754624Y-84702449D01*
X119715270Y-84648282D01*
X119715269Y-84648282D01*
X119082962Y-85280590D01*
X119065925Y-85217007D01*
X119000099Y-85102993D01*
X118907007Y-85009901D01*
X118792993Y-84944075D01*
X118729407Y-84927036D01*
X119361716Y-84294728D01*
X119307547Y-84255373D01*
X119307547Y-84255372D01*
X119298500Y-84250763D01*
X119247706Y-84202788D01*
X119230912Y-84134966D01*
X119253451Y-84068832D01*
X119298508Y-84029793D01*
X119307816Y-84025051D01*
X119387007Y-83967515D01*
X119479786Y-83900109D01*
X119479788Y-83900106D01*
X119479792Y-83900104D01*
X119630104Y-83749792D01*
X119630106Y-83749788D01*
X119630109Y-83749786D01*
X119755048Y-83577820D01*
X119755047Y-83577820D01*
X119755051Y-83577816D01*
X119851557Y-83388412D01*
X119917246Y-83186243D01*
X119950500Y-82976287D01*
X119950500Y-82763713D01*
X119917246Y-82553757D01*
X119903506Y-82511473D01*
X119901512Y-82441635D01*
X119933755Y-82385478D01*
X120522416Y-81796819D01*
X120583739Y-81763334D01*
X120610097Y-81760500D01*
X131429906Y-81760500D01*
X131496945Y-81780185D01*
X131542700Y-81832989D01*
X131553195Y-81897752D01*
X131549500Y-81932127D01*
X131549500Y-81932128D01*
X131549500Y-81932132D01*
X131549500Y-82927870D01*
X131549501Y-82927876D01*
X131555908Y-82987481D01*
X131568659Y-83021669D01*
X131573642Y-83091361D01*
X131568659Y-83108331D01*
X131555908Y-83142518D01*
X131549501Y-83202116D01*
X131549501Y-83202123D01*
X131549500Y-83202135D01*
X131549500Y-84197870D01*
X131549501Y-84197876D01*
X131555908Y-84257481D01*
X131568659Y-84291669D01*
X131573642Y-84361361D01*
X131568659Y-84378331D01*
X131555908Y-84412518D01*
X131549501Y-84472116D01*
X131549501Y-84472123D01*
X131549500Y-84472135D01*
X131549500Y-85467870D01*
X131549501Y-85467876D01*
X131555908Y-85527483D01*
X131606202Y-85662328D01*
X131606206Y-85662335D01*
X131692452Y-85777544D01*
X131692455Y-85777547D01*
X131807664Y-85863793D01*
X131807671Y-85863797D01*
X131942517Y-85914091D01*
X131942516Y-85914091D01*
X131949444Y-85914835D01*
X132002127Y-85920500D01*
X133597872Y-85920499D01*
X133657483Y-85914091D01*
X133792331Y-85863796D01*
X133907546Y-85777546D01*
X133993796Y-85662331D01*
X134044091Y-85527483D01*
X134050500Y-85467873D01*
X134050500Y-85422155D01*
X134890000Y-85422155D01*
X134890000Y-85970000D01*
X135590000Y-85970000D01*
X135590000Y-84970000D01*
X135342155Y-84970000D01*
X135282627Y-84976401D01*
X135282620Y-84976403D01*
X135147913Y-85026645D01*
X135147906Y-85026649D01*
X135032812Y-85112809D01*
X135032809Y-85112812D01*
X134946649Y-85227906D01*
X134946645Y-85227913D01*
X134896403Y-85362620D01*
X134896401Y-85362627D01*
X134890000Y-85422155D01*
X134050500Y-85422155D01*
X134050499Y-84970000D01*
X134050499Y-84472129D01*
X134050498Y-84472123D01*
X134050497Y-84472116D01*
X134044091Y-84412517D01*
X134031340Y-84378332D01*
X134026357Y-84308642D01*
X134031340Y-84291669D01*
X134044091Y-84257483D01*
X134050500Y-84197873D01*
X134050499Y-83202128D01*
X134044091Y-83142517D01*
X134031340Y-83108332D01*
X134026357Y-83038642D01*
X134031340Y-83021669D01*
X134044091Y-82987483D01*
X134050500Y-82927873D01*
X134050499Y-81932128D01*
X134044091Y-81872517D01*
X134031340Y-81838332D01*
X134026357Y-81768642D01*
X134031338Y-81751672D01*
X134044091Y-81717483D01*
X134050500Y-81657873D01*
X134050499Y-80662128D01*
X134044091Y-80602517D01*
X134031340Y-80568332D01*
X134026357Y-80498642D01*
X134031338Y-80481672D01*
X134044091Y-80447483D01*
X134050500Y-80387873D01*
X134050499Y-79392128D01*
X134044091Y-79332517D01*
X134031340Y-79298332D01*
X134026357Y-79228642D01*
X134031338Y-79211672D01*
X134044091Y-79177483D01*
X134050500Y-79117873D01*
X134050499Y-78122128D01*
X134044091Y-78062517D01*
X134031340Y-78028332D01*
X134026357Y-77958642D01*
X134031338Y-77941672D01*
X134044091Y-77907483D01*
X134045127Y-77897844D01*
X138320000Y-77897844D01*
X138326401Y-77957372D01*
X138326403Y-77957379D01*
X138376645Y-78092086D01*
X138376649Y-78092093D01*
X138462809Y-78207187D01*
X138462812Y-78207190D01*
X138577906Y-78293350D01*
X138577913Y-78293354D01*
X138712620Y-78343596D01*
X138712627Y-78343598D01*
X138772155Y-78349999D01*
X138772172Y-78350000D01*
X139095000Y-78350000D01*
X139595000Y-78350000D01*
X139917828Y-78350000D01*
X139917844Y-78349999D01*
X139977377Y-78343597D01*
X139977379Y-78343597D01*
X140064165Y-78311227D01*
X140133857Y-78306241D01*
X140150835Y-78311227D01*
X140237621Y-78343597D01*
X140297155Y-78349999D01*
X140297172Y-78350000D01*
X140620000Y-78350000D01*
X141120000Y-78350000D01*
X141442828Y-78350000D01*
X141442844Y-78349999D01*
X141502377Y-78343597D01*
X141502379Y-78343597D01*
X141589165Y-78311227D01*
X141658857Y-78306241D01*
X141675835Y-78311227D01*
X141762621Y-78343597D01*
X141822155Y-78349999D01*
X141822172Y-78350000D01*
X142145000Y-78350000D01*
X142645000Y-78350000D01*
X142967828Y-78350000D01*
X142967844Y-78349999D01*
X143027372Y-78343598D01*
X143027379Y-78343596D01*
X143162086Y-78293354D01*
X143162093Y-78293350D01*
X143277187Y-78207190D01*
X143277190Y-78207187D01*
X143363350Y-78092093D01*
X143363354Y-78092086D01*
X143413596Y-77957379D01*
X143413598Y-77957372D01*
X143419999Y-77897844D01*
X143420000Y-77897827D01*
X143420000Y-77575000D01*
X142645000Y-77575000D01*
X142645000Y-78350000D01*
X142145000Y-78350000D01*
X142145000Y-77575000D01*
X141120000Y-77575000D01*
X141120000Y-78350000D01*
X140620000Y-78350000D01*
X140620000Y-77575000D01*
X139595000Y-77575000D01*
X139595000Y-78350000D01*
X139095000Y-78350000D01*
X139095000Y-77575000D01*
X138320000Y-77575000D01*
X138320000Y-77897844D01*
X134045127Y-77897844D01*
X134050500Y-77847873D01*
X134050499Y-77271588D01*
X134050499Y-76852129D01*
X134050498Y-76852123D01*
X134050497Y-76852116D01*
X134044091Y-76792517D01*
X134031340Y-76758332D01*
X134026357Y-76688642D01*
X134031340Y-76671669D01*
X134044091Y-76637483D01*
X134050500Y-76577873D01*
X134050500Y-76372844D01*
X138320000Y-76372844D01*
X138326401Y-76432372D01*
X138326403Y-76432383D01*
X138358772Y-76519168D01*
X138363756Y-76588859D01*
X138358772Y-76605832D01*
X138326403Y-76692616D01*
X138326401Y-76692627D01*
X138320000Y-76752155D01*
X138320000Y-77075000D01*
X139095000Y-77075000D01*
X139595000Y-77075000D01*
X140620000Y-77075000D01*
X141120000Y-77075000D01*
X142145000Y-77075000D01*
X142645000Y-77075000D01*
X143420000Y-77075000D01*
X143420000Y-76752172D01*
X143419999Y-76752155D01*
X143413597Y-76692622D01*
X143413597Y-76692620D01*
X143381227Y-76605835D01*
X143376241Y-76536143D01*
X143381227Y-76519165D01*
X143413597Y-76432379D01*
X143413597Y-76432377D01*
X143419999Y-76372844D01*
X143420000Y-76372827D01*
X143420000Y-76050000D01*
X142645000Y-76050000D01*
X142645000Y-77075000D01*
X142145000Y-77075000D01*
X142145000Y-76050000D01*
X141120000Y-76050000D01*
X141120000Y-77075000D01*
X140620000Y-77075000D01*
X140620000Y-76050000D01*
X139595000Y-76050000D01*
X139595000Y-77075000D01*
X139095000Y-77075000D01*
X139095000Y-76050000D01*
X138320000Y-76050000D01*
X138320000Y-76372844D01*
X134050500Y-76372844D01*
X134050499Y-75582128D01*
X134044091Y-75522517D01*
X134031340Y-75488332D01*
X134026357Y-75418642D01*
X134031340Y-75401669D01*
X134044091Y-75367483D01*
X134050500Y-75307873D01*
X134050500Y-74847844D01*
X138320000Y-74847844D01*
X138326401Y-74907372D01*
X138326403Y-74907383D01*
X138358772Y-74994168D01*
X138363756Y-75063859D01*
X138358772Y-75080832D01*
X138326403Y-75167616D01*
X138326401Y-75167627D01*
X138320000Y-75227155D01*
X138320000Y-75550000D01*
X139095000Y-75550000D01*
X139595000Y-75550000D01*
X140620000Y-75550000D01*
X141120000Y-75550000D01*
X142145000Y-75550000D01*
X142645000Y-75550000D01*
X143420000Y-75550000D01*
X143420000Y-75227172D01*
X143419999Y-75227155D01*
X143413597Y-75167622D01*
X143413597Y-75167620D01*
X143381227Y-75080835D01*
X143376241Y-75011143D01*
X143381227Y-74994165D01*
X143413597Y-74907379D01*
X143413597Y-74907377D01*
X143419999Y-74847844D01*
X143420000Y-74847827D01*
X143420000Y-74525000D01*
X142645000Y-74525000D01*
X142645000Y-75550000D01*
X142145000Y-75550000D01*
X142145000Y-74525000D01*
X141120000Y-74525000D01*
X141120000Y-75550000D01*
X140620000Y-75550000D01*
X140620000Y-74525000D01*
X139595000Y-74525000D01*
X139595000Y-75550000D01*
X139095000Y-75550000D01*
X139095000Y-74525000D01*
X138320000Y-74525000D01*
X138320000Y-74847844D01*
X134050500Y-74847844D01*
X134050499Y-74312128D01*
X134044091Y-74252517D01*
X134031340Y-74218332D01*
X134026357Y-74148642D01*
X134031340Y-74131669D01*
X134044091Y-74097483D01*
X134050500Y-74037873D01*
X134050499Y-73702155D01*
X138320000Y-73702155D01*
X138320000Y-74025000D01*
X139095000Y-74025000D01*
X139595000Y-74025000D01*
X140620000Y-74025000D01*
X141120000Y-74025000D01*
X142145000Y-74025000D01*
X142645000Y-74025000D01*
X143420000Y-74025000D01*
X143420000Y-73702172D01*
X143419999Y-73702155D01*
X143413598Y-73642627D01*
X143413596Y-73642620D01*
X143363354Y-73507913D01*
X143363350Y-73507906D01*
X143277190Y-73392812D01*
X143277187Y-73392809D01*
X143162093Y-73306649D01*
X143162086Y-73306645D01*
X143027379Y-73256403D01*
X143027372Y-73256401D01*
X142967844Y-73250000D01*
X142645000Y-73250000D01*
X142645000Y-74025000D01*
X142145000Y-74025000D01*
X142145000Y-73250000D01*
X141822155Y-73250000D01*
X141762627Y-73256401D01*
X141762616Y-73256403D01*
X141675832Y-73288772D01*
X141606141Y-73293756D01*
X141589168Y-73288772D01*
X141502383Y-73256403D01*
X141502372Y-73256401D01*
X141442844Y-73250000D01*
X141120000Y-73250000D01*
X141120000Y-74025000D01*
X140620000Y-74025000D01*
X140620000Y-73250000D01*
X140297155Y-73250000D01*
X140237627Y-73256401D01*
X140237616Y-73256403D01*
X140150832Y-73288772D01*
X140081141Y-73293756D01*
X140064168Y-73288772D01*
X139977383Y-73256403D01*
X139977372Y-73256401D01*
X139917844Y-73250000D01*
X139595000Y-73250000D01*
X139595000Y-74025000D01*
X139095000Y-74025000D01*
X139095000Y-73250000D01*
X138772155Y-73250000D01*
X138712627Y-73256401D01*
X138712620Y-73256403D01*
X138577913Y-73306645D01*
X138577906Y-73306649D01*
X138462812Y-73392809D01*
X138462809Y-73392812D01*
X138376649Y-73507906D01*
X138376645Y-73507913D01*
X138326403Y-73642620D01*
X138326401Y-73642627D01*
X138320000Y-73702155D01*
X134050499Y-73702155D01*
X134050499Y-73507913D01*
X134050499Y-73042129D01*
X134050498Y-73042123D01*
X134050497Y-73042116D01*
X134044091Y-72982517D01*
X134031340Y-72948332D01*
X134026357Y-72878642D01*
X134031340Y-72861669D01*
X134044091Y-72827483D01*
X134050500Y-72767873D01*
X134050499Y-71772128D01*
X134044091Y-71712517D01*
X134031340Y-71678332D01*
X134026357Y-71608642D01*
X134031340Y-71591669D01*
X134044091Y-71557483D01*
X134050500Y-71497873D01*
X134050499Y-70502128D01*
X134044091Y-70442517D01*
X134031340Y-70408332D01*
X134026357Y-70338642D01*
X134031338Y-70321672D01*
X134044091Y-70287483D01*
X134050500Y-70227873D01*
X134050499Y-69232128D01*
X134044091Y-69172517D01*
X134031073Y-69137616D01*
X134026090Y-69067926D01*
X134031075Y-69050949D01*
X134043597Y-69017375D01*
X134043598Y-69017372D01*
X134049999Y-68957844D01*
X134050000Y-68957827D01*
X134050000Y-68710000D01*
X131550000Y-68710000D01*
X131550000Y-68957839D01*
X131553700Y-68992242D01*
X131541296Y-69061002D01*
X131493687Y-69112140D01*
X131430411Y-69129500D01*
X119836670Y-69129500D01*
X119836654Y-69129499D01*
X119829058Y-69129499D01*
X119670943Y-69129499D01*
X119594721Y-69149923D01*
X119518214Y-69170423D01*
X119518209Y-69170426D01*
X119381283Y-69249479D01*
X119350610Y-69280152D01*
X119289286Y-69313637D01*
X119219595Y-69308651D01*
X119175249Y-69280151D01*
X119165383Y-69270285D01*
X119165374Y-69270278D01*
X119026195Y-69187968D01*
X119026190Y-69187966D01*
X118870918Y-69142855D01*
X118870912Y-69142854D01*
X118850000Y-69141209D01*
X118850000Y-69729401D01*
X118841356Y-69758837D01*
X118834833Y-69788827D01*
X118831077Y-69793844D01*
X118830315Y-69796440D01*
X118813682Y-69817082D01*
X118747084Y-69883681D01*
X118685761Y-69917166D01*
X118659402Y-69920000D01*
X118474000Y-69920000D01*
X118406961Y-69900315D01*
X118361206Y-69847511D01*
X118350000Y-69796000D01*
X118350000Y-69141210D01*
X118349999Y-69141209D01*
X118329087Y-69142854D01*
X118329081Y-69142855D01*
X118173809Y-69187966D01*
X118173800Y-69187970D01*
X118137620Y-69209367D01*
X118069896Y-69226550D01*
X118003634Y-69204390D01*
X117959871Y-69149923D01*
X117950500Y-69102635D01*
X117950500Y-67962155D01*
X131550000Y-67962155D01*
X131550000Y-68210000D01*
X132550000Y-68210000D01*
X133050000Y-68210000D01*
X134050000Y-68210000D01*
X134050000Y-67962172D01*
X134049999Y-67962155D01*
X134043598Y-67902627D01*
X134043596Y-67902620D01*
X133993354Y-67767913D01*
X133993350Y-67767906D01*
X133907190Y-67652812D01*
X133907187Y-67652809D01*
X133792093Y-67566649D01*
X133792086Y-67566645D01*
X133657379Y-67516403D01*
X133657372Y-67516401D01*
X133597844Y-67510000D01*
X133050000Y-67510000D01*
X133050000Y-68210000D01*
X132550000Y-68210000D01*
X132550000Y-67510000D01*
X132002155Y-67510000D01*
X131942627Y-67516401D01*
X131942620Y-67516403D01*
X131807913Y-67566645D01*
X131807906Y-67566649D01*
X131692812Y-67652809D01*
X131692809Y-67652812D01*
X131606649Y-67767906D01*
X131606645Y-67767913D01*
X131556403Y-67902620D01*
X131556401Y-67902627D01*
X131550000Y-67962155D01*
X117950500Y-67962155D01*
X117950500Y-67034000D01*
X117970185Y-66966961D01*
X118022989Y-66921206D01*
X118074500Y-66910000D01*
X148335717Y-66910000D01*
X148402756Y-66929685D01*
X148448511Y-66982489D01*
X148458455Y-67051647D01*
X148435221Y-67107992D01*
X148429808Y-67115270D01*
X148369480Y-67175599D01*
X148319360Y-67262410D01*
X148315771Y-67268624D01*
X148315765Y-67268634D01*
X148290425Y-67312524D01*
X148290424Y-67312525D01*
X148290423Y-67312530D01*
X148249499Y-67465258D01*
X148249499Y-67465260D01*
X148249499Y-67633361D01*
X148249500Y-67633374D01*
X148249500Y-84993456D01*
X148229815Y-85060495D01*
X148177011Y-85106250D01*
X148107853Y-85116194D01*
X148051189Y-85092723D01*
X148037346Y-85082360D01*
X147962331Y-85026204D01*
X147962329Y-85026203D01*
X147962328Y-85026202D01*
X147827482Y-84975908D01*
X147827483Y-84975908D01*
X147767883Y-84969501D01*
X147767881Y-84969500D01*
X147767873Y-84969500D01*
X147767864Y-84969500D01*
X146772129Y-84969500D01*
X146772123Y-84969501D01*
X146712518Y-84975908D01*
X146678331Y-84988659D01*
X146608639Y-84993642D01*
X146591669Y-84988659D01*
X146574140Y-84982121D01*
X146557483Y-84975909D01*
X146557482Y-84975908D01*
X146497883Y-84969501D01*
X146497881Y-84969500D01*
X146497873Y-84969500D01*
X146497864Y-84969500D01*
X145502129Y-84969500D01*
X145502123Y-84969501D01*
X145442518Y-84975908D01*
X145408331Y-84988659D01*
X145338639Y-84993642D01*
X145321669Y-84988659D01*
X145304140Y-84982121D01*
X145287483Y-84975909D01*
X145287482Y-84975908D01*
X145227883Y-84969501D01*
X145227881Y-84969500D01*
X145227873Y-84969500D01*
X145227864Y-84969500D01*
X144232129Y-84969500D01*
X144232123Y-84969501D01*
X144172518Y-84975908D01*
X144138331Y-84988659D01*
X144068639Y-84993642D01*
X144051669Y-84988659D01*
X144034140Y-84982121D01*
X144017483Y-84975909D01*
X144017482Y-84975908D01*
X143957883Y-84969501D01*
X143957881Y-84969500D01*
X143957873Y-84969500D01*
X143957864Y-84969500D01*
X142962129Y-84969500D01*
X142962123Y-84969501D01*
X142902518Y-84975908D01*
X142868331Y-84988659D01*
X142798639Y-84993642D01*
X142781669Y-84988659D01*
X142764140Y-84982121D01*
X142747483Y-84975909D01*
X142747482Y-84975908D01*
X142687883Y-84969501D01*
X142687881Y-84969500D01*
X142687873Y-84969500D01*
X142687864Y-84969500D01*
X141692129Y-84969500D01*
X141692123Y-84969501D01*
X141632518Y-84975908D01*
X141598331Y-84988659D01*
X141528639Y-84993642D01*
X141511669Y-84988659D01*
X141494140Y-84982121D01*
X141477483Y-84975909D01*
X141477482Y-84975908D01*
X141417883Y-84969501D01*
X141417881Y-84969500D01*
X141417873Y-84969500D01*
X141417864Y-84969500D01*
X140422129Y-84969500D01*
X140422123Y-84969501D01*
X140362518Y-84975908D01*
X140328331Y-84988659D01*
X140258639Y-84993642D01*
X140241669Y-84988659D01*
X140224140Y-84982121D01*
X140207483Y-84975909D01*
X140207482Y-84975908D01*
X140147883Y-84969501D01*
X140147881Y-84969500D01*
X140147873Y-84969500D01*
X140147864Y-84969500D01*
X139152129Y-84969500D01*
X139152123Y-84969501D01*
X139092518Y-84975908D01*
X139058331Y-84988659D01*
X138988639Y-84993642D01*
X138971669Y-84988659D01*
X138954140Y-84982121D01*
X138937483Y-84975909D01*
X138937482Y-84975908D01*
X138877883Y-84969501D01*
X138877881Y-84969500D01*
X138877873Y-84969500D01*
X138877864Y-84969500D01*
X137882129Y-84969500D01*
X137882123Y-84969501D01*
X137822518Y-84975908D01*
X137788331Y-84988659D01*
X137718639Y-84993642D01*
X137701669Y-84988659D01*
X137684140Y-84982121D01*
X137667483Y-84975909D01*
X137667482Y-84975908D01*
X137607883Y-84969501D01*
X137607881Y-84969500D01*
X137607873Y-84969500D01*
X137607864Y-84969500D01*
X136612129Y-84969500D01*
X136612123Y-84969501D01*
X136552520Y-84975908D01*
X136552517Y-84975908D01*
X136552517Y-84975909D01*
X136517620Y-84988925D01*
X136517617Y-84988926D01*
X136447925Y-84993909D01*
X136430952Y-84988925D01*
X136397379Y-84976403D01*
X136397372Y-84976401D01*
X136337844Y-84970000D01*
X136090000Y-84970000D01*
X136090000Y-87470000D01*
X136337828Y-87470000D01*
X136337844Y-87469999D01*
X136397372Y-87463598D01*
X136397375Y-87463597D01*
X136430949Y-87451075D01*
X136500640Y-87446089D01*
X136517619Y-87451075D01*
X136552511Y-87464089D01*
X136552512Y-87464089D01*
X136552517Y-87464091D01*
X136612127Y-87470500D01*
X137607872Y-87470499D01*
X137667483Y-87464091D01*
X137701667Y-87451340D01*
X137771358Y-87446357D01*
X137788327Y-87451338D01*
X137822517Y-87464091D01*
X137882127Y-87470500D01*
X138877872Y-87470499D01*
X138937483Y-87464091D01*
X138971667Y-87451340D01*
X139041358Y-87446357D01*
X139058327Y-87451338D01*
X139092517Y-87464091D01*
X139152127Y-87470500D01*
X140147872Y-87470499D01*
X140207483Y-87464091D01*
X140241667Y-87451340D01*
X140311358Y-87446357D01*
X140328327Y-87451338D01*
X140362517Y-87464091D01*
X140422127Y-87470500D01*
X141417872Y-87470499D01*
X141477483Y-87464091D01*
X141511667Y-87451340D01*
X141581358Y-87446357D01*
X141598327Y-87451338D01*
X141632517Y-87464091D01*
X141692127Y-87470500D01*
X142687872Y-87470499D01*
X142747483Y-87464091D01*
X142781667Y-87451340D01*
X142851358Y-87446357D01*
X142868327Y-87451338D01*
X142902517Y-87464091D01*
X142962127Y-87470500D01*
X143957872Y-87470499D01*
X144017483Y-87464091D01*
X144051667Y-87451340D01*
X144121358Y-87446357D01*
X144138327Y-87451338D01*
X144172517Y-87464091D01*
X144232127Y-87470500D01*
X145227872Y-87470499D01*
X145287483Y-87464091D01*
X145321667Y-87451340D01*
X145391358Y-87446357D01*
X145408327Y-87451338D01*
X145442517Y-87464091D01*
X145502127Y-87470500D01*
X146497872Y-87470499D01*
X146557483Y-87464091D01*
X146591667Y-87451340D01*
X146661358Y-87446357D01*
X146678327Y-87451338D01*
X146712517Y-87464091D01*
X146772127Y-87470500D01*
X147767872Y-87470499D01*
X147827483Y-87464091D01*
X147962331Y-87413796D01*
X148077546Y-87327546D01*
X148163796Y-87212331D01*
X148214091Y-87077483D01*
X148220500Y-87017873D01*
X148220499Y-85839096D01*
X148226737Y-85817851D01*
X148228317Y-85795764D01*
X148236389Y-85784980D01*
X148240184Y-85772058D01*
X148256918Y-85757557D01*
X148270188Y-85739831D01*
X148282807Y-85735124D01*
X148292987Y-85726303D01*
X148314905Y-85723151D01*
X148335652Y-85715413D01*
X148348813Y-85718275D01*
X148362146Y-85716359D01*
X148382287Y-85725557D01*
X148403925Y-85730264D01*
X148421651Y-85743534D01*
X148425702Y-85745384D01*
X148432179Y-85751415D01*
X148481284Y-85800520D01*
X148481285Y-85800520D01*
X148488353Y-85807588D01*
X148765139Y-86084374D01*
X148765149Y-86084385D01*
X148769479Y-86088715D01*
X148769480Y-86088716D01*
X148881284Y-86200520D01*
X148881286Y-86200521D01*
X148881290Y-86200524D01*
X149018209Y-86279573D01*
X149018216Y-86279577D01*
X149130019Y-86309534D01*
X149170942Y-86320500D01*
X149170943Y-86320500D01*
X149170944Y-86320500D01*
X151429055Y-86320500D01*
X151429057Y-86320500D01*
X151581784Y-86279577D01*
X151718716Y-86200520D01*
X151830520Y-86088716D01*
X151909577Y-85951784D01*
X151950500Y-85799057D01*
X151950500Y-71440943D01*
X151931147Y-71368716D01*
X151926132Y-71350000D01*
X179195496Y-71350000D01*
X179750000Y-71350000D01*
X180250000Y-71350000D01*
X180804504Y-71350000D01*
X180762031Y-71203804D01*
X180679721Y-71064625D01*
X180679714Y-71064616D01*
X180565383Y-70950285D01*
X180565374Y-70950278D01*
X180426195Y-70867968D01*
X180426190Y-70867966D01*
X180270918Y-70822855D01*
X180270912Y-70822854D01*
X180250000Y-70821209D01*
X180250000Y-71350000D01*
X179750000Y-71350000D01*
X179750000Y-70821210D01*
X179749999Y-70821209D01*
X179729087Y-70822854D01*
X179729081Y-70822855D01*
X179573809Y-70867966D01*
X179573804Y-70867968D01*
X179434625Y-70950278D01*
X179434616Y-70950285D01*
X179320285Y-71064616D01*
X179320278Y-71064625D01*
X179237968Y-71203804D01*
X179195496Y-71350000D01*
X151926132Y-71350000D01*
X151909577Y-71288215D01*
X151876996Y-71231784D01*
X151871859Y-71222887D01*
X151871858Y-71222883D01*
X151830522Y-71151287D01*
X151830521Y-71151286D01*
X151830520Y-71151284D01*
X151718716Y-71039480D01*
X151718715Y-71039479D01*
X151714385Y-71035149D01*
X151714374Y-71035139D01*
X151586818Y-70907583D01*
X151553333Y-70846260D01*
X151550499Y-70819902D01*
X151550499Y-70502129D01*
X151550498Y-70502123D01*
X151544091Y-70442518D01*
X151544091Y-70442517D01*
X151531340Y-70408332D01*
X151526357Y-70338642D01*
X151531338Y-70321672D01*
X151544091Y-70287483D01*
X151550500Y-70227873D01*
X151550499Y-69232128D01*
X151544091Y-69172517D01*
X151531073Y-69137616D01*
X151526090Y-69067926D01*
X151531075Y-69050949D01*
X151543597Y-69017375D01*
X151543598Y-69017372D01*
X151549999Y-68957844D01*
X151550000Y-68957827D01*
X151550000Y-68710000D01*
X150424000Y-68710000D01*
X150415314Y-68707449D01*
X150406353Y-68708738D01*
X150382312Y-68697759D01*
X150356961Y-68690315D01*
X150351033Y-68683474D01*
X150342797Y-68679713D01*
X150328507Y-68657478D01*
X150311206Y-68637511D01*
X150308918Y-68626996D01*
X150305023Y-68620935D01*
X150300000Y-68586000D01*
X150300000Y-68434500D01*
X150319685Y-68367461D01*
X150372489Y-68321706D01*
X150424000Y-68310500D01*
X178549903Y-68310500D01*
X178616942Y-68330185D01*
X178637584Y-68346819D01*
X184528583Y-74237819D01*
X184562068Y-74299142D01*
X184557084Y-74368834D01*
X184515212Y-74424767D01*
X184449748Y-74449184D01*
X184440902Y-74449500D01*
X184293713Y-74449500D01*
X184251828Y-74456134D01*
X184083760Y-74482753D01*
X183881585Y-74548444D01*
X183692179Y-74644951D01*
X183520213Y-74769890D01*
X183369890Y-74920213D01*
X183244949Y-75092182D01*
X183240484Y-75100946D01*
X183192509Y-75151742D01*
X183124688Y-75168536D01*
X183058553Y-75145998D01*
X183019516Y-75100946D01*
X183015050Y-75092182D01*
X182890109Y-74920213D01*
X182739786Y-74769890D01*
X182567820Y-74644951D01*
X182378414Y-74548444D01*
X182378413Y-74548443D01*
X182378412Y-74548443D01*
X182176243Y-74482754D01*
X182176241Y-74482753D01*
X182176240Y-74482753D01*
X182008172Y-74456134D01*
X181966287Y-74449500D01*
X181753713Y-74449500D01*
X181725006Y-74454046D01*
X181543757Y-74482753D01*
X181501473Y-74496492D01*
X181431632Y-74498486D01*
X181375476Y-74466241D01*
X180636819Y-73727584D01*
X180603334Y-73666261D01*
X180600500Y-73639903D01*
X180600500Y-73226666D01*
X180620185Y-73159627D01*
X180636820Y-73138984D01*
X180680112Y-73095692D01*
X180680117Y-73095687D01*
X180762494Y-72956395D01*
X180807643Y-72800993D01*
X180810500Y-72764690D01*
X180810500Y-72355310D01*
X180807643Y-72319007D01*
X180803207Y-72303739D01*
X180762495Y-72163609D01*
X180762494Y-72163605D01*
X180762493Y-72163604D01*
X180750089Y-72142630D01*
X180732906Y-72074909D01*
X180750091Y-72016384D01*
X180762032Y-71996194D01*
X180804504Y-71850000D01*
X180498352Y-71850000D01*
X180435233Y-71832732D01*
X180426395Y-71827506D01*
X180426393Y-71827505D01*
X180426389Y-71827503D01*
X180270997Y-71782357D01*
X180270991Y-71782356D01*
X180234697Y-71779500D01*
X180234690Y-71779500D01*
X179765310Y-71779500D01*
X179765302Y-71779500D01*
X179729008Y-71782356D01*
X179729002Y-71782357D01*
X179573610Y-71827503D01*
X179573605Y-71827506D01*
X179564766Y-71832732D01*
X179501648Y-71850000D01*
X179195496Y-71850000D01*
X179237968Y-71996194D01*
X179249911Y-72016389D01*
X179267092Y-72084113D01*
X179249911Y-72142628D01*
X179237506Y-72163604D01*
X179237504Y-72163609D01*
X179192357Y-72319002D01*
X179192356Y-72319008D01*
X179189500Y-72355302D01*
X179189500Y-72764697D01*
X179192356Y-72800991D01*
X179192357Y-72800997D01*
X179237504Y-72956390D01*
X179237505Y-72956393D01*
X179237506Y-72956395D01*
X179252955Y-72982518D01*
X179319881Y-73095684D01*
X179319887Y-73095692D01*
X179363180Y-73138984D01*
X179396666Y-73200307D01*
X179399500Y-73226666D01*
X179399500Y-73860939D01*
X179399499Y-73860943D01*
X179399499Y-74019057D01*
X179399500Y-74019060D01*
X179399500Y-74363940D01*
X179399499Y-74363958D01*
X179399499Y-74529664D01*
X179399498Y-74529664D01*
X179399499Y-74529667D01*
X179440423Y-74682395D01*
X179468208Y-74730520D01*
X179519480Y-74819326D01*
X179542509Y-74842355D01*
X179549401Y-74852767D01*
X179556165Y-74874703D01*
X179567166Y-74894850D01*
X179569729Y-74918692D01*
X179569989Y-74919534D01*
X179569867Y-74919971D01*
X179570000Y-74921208D01*
X179570000Y-75366988D01*
X179512993Y-75334075D01*
X179385826Y-75300000D01*
X179254174Y-75300000D01*
X179127007Y-75334075D01*
X179070000Y-75366988D01*
X179070000Y-74450000D01*
X178585837Y-74450000D01*
X178518348Y-74456132D01*
X178518341Y-74456134D01*
X178363010Y-74504537D01*
X178363001Y-74504540D01*
X178223766Y-74588710D01*
X178223762Y-74588713D01*
X178108713Y-74703762D01*
X178108710Y-74703766D01*
X178024540Y-74843001D01*
X178024538Y-74843007D01*
X177976135Y-74998337D01*
X177976134Y-74998344D01*
X177970000Y-75065848D01*
X177970000Y-75550000D01*
X178886988Y-75550000D01*
X178854075Y-75607007D01*
X178820000Y-75734174D01*
X178820000Y-75865826D01*
X178854075Y-75992993D01*
X178886988Y-76050000D01*
X177970001Y-76050000D01*
X177970001Y-76534162D01*
X177976132Y-76601651D01*
X177976134Y-76601658D01*
X178024537Y-76756989D01*
X178024540Y-76756998D01*
X178108710Y-76896233D01*
X178108713Y-76896237D01*
X178223762Y-77011286D01*
X178223766Y-77011289D01*
X178363001Y-77095459D01*
X178363007Y-77095461D01*
X178518337Y-77143864D01*
X178518344Y-77143865D01*
X178585848Y-77149999D01*
X179069999Y-77149999D01*
X179070000Y-77149998D01*
X179070000Y-76233012D01*
X179127007Y-76265925D01*
X179254174Y-76300000D01*
X179385826Y-76300000D01*
X179512993Y-76265925D01*
X179570000Y-76233012D01*
X179570000Y-77149999D01*
X180054161Y-77149999D01*
X180121651Y-77143867D01*
X180121658Y-77143865D01*
X180276989Y-77095462D01*
X180276998Y-77095459D01*
X180416233Y-77011289D01*
X180416237Y-77011286D01*
X180531286Y-76896237D01*
X180531289Y-76896233D01*
X180615459Y-76756998D01*
X180615460Y-76756995D01*
X180623723Y-76730478D01*
X180662460Y-76672330D01*
X180726485Y-76644355D01*
X180795471Y-76655436D01*
X180829790Y-76679686D01*
X180980213Y-76830109D01*
X181152184Y-76955051D01*
X181152184Y-76955052D01*
X181191793Y-76975233D01*
X181242590Y-77023206D01*
X181259500Y-77085718D01*
X181259500Y-125736036D01*
X181239815Y-125803075D01*
X181223181Y-125823717D01*
X168698679Y-138348219D01*
X168637356Y-138381704D01*
X168567664Y-138376720D01*
X168523317Y-138348219D01*
X168495383Y-138320285D01*
X168495374Y-138320278D01*
X168356193Y-138237967D01*
X168356190Y-138237965D01*
X168210001Y-138195493D01*
X168210000Y-138195494D01*
X168210000Y-138785537D01*
X168201355Y-138814977D01*
X168194832Y-138844964D01*
X168191077Y-138849979D01*
X168190315Y-138852576D01*
X168173681Y-138873218D01*
X168083218Y-138963681D01*
X168021895Y-138997166D01*
X167995537Y-139000000D01*
X167904500Y-139000000D01*
X167837461Y-138980315D01*
X167791706Y-138927511D01*
X167780500Y-138876000D01*
X167780500Y-138765317D01*
X167780499Y-138765302D01*
X167777643Y-138729008D01*
X167777642Y-138729002D01*
X167732495Y-138573608D01*
X167732492Y-138573600D01*
X167727266Y-138564763D01*
X167710000Y-138501645D01*
X167710000Y-138195494D01*
X167709998Y-138195493D01*
X167563809Y-138237965D01*
X167563806Y-138237967D01*
X167543608Y-138249912D01*
X167475884Y-138267092D01*
X167417370Y-138249910D01*
X167396397Y-138237507D01*
X167396390Y-138237504D01*
X167240997Y-138192357D01*
X167240991Y-138192356D01*
X167204697Y-138189500D01*
X167204690Y-138189500D01*
X166795310Y-138189500D01*
X166795302Y-138189500D01*
X166759008Y-138192356D01*
X166759002Y-138192357D01*
X166603609Y-138237504D01*
X166603606Y-138237505D01*
X166464315Y-138319881D01*
X166464307Y-138319887D01*
X166421016Y-138363180D01*
X166394087Y-138377884D01*
X166368269Y-138394477D01*
X166362069Y-138395368D01*
X166359693Y-138396666D01*
X166333334Y-138399500D01*
X166274499Y-138399500D01*
X166207460Y-138379815D01*
X166161705Y-138327011D01*
X166150499Y-138275500D01*
X166150499Y-137541971D01*
X166150499Y-137541964D01*
X166139886Y-137422582D01*
X166083909Y-137226951D01*
X165989698Y-137046593D01*
X165910937Y-136950000D01*
X165861109Y-136888890D01*
X165703409Y-136760304D01*
X165703410Y-136760304D01*
X165703407Y-136760302D01*
X165523049Y-136666091D01*
X165523048Y-136666090D01*
X165523045Y-136666089D01*
X165405829Y-136632550D01*
X165327418Y-136610114D01*
X165327415Y-136610113D01*
X165327413Y-136610113D01*
X165261102Y-136604217D01*
X165208037Y-136599500D01*
X165208032Y-136599500D01*
X164091971Y-136599500D01*
X164091965Y-136599500D01*
X164091964Y-136599501D01*
X164080316Y-136600536D01*
X163972584Y-136610113D01*
X163776954Y-136666089D01*
X163686772Y-136713196D01*
X163596593Y-136760302D01*
X163596591Y-136760303D01*
X163596590Y-136760304D01*
X163438890Y-136888890D01*
X163310304Y-137046590D01*
X163216089Y-137226954D01*
X163160114Y-137422583D01*
X163160113Y-137422586D01*
X163149500Y-137541966D01*
X163149500Y-138275500D01*
X163129815Y-138342539D01*
X163077011Y-138388294D01*
X163025500Y-138399500D01*
X159916916Y-138399500D01*
X159849877Y-138379815D01*
X159804122Y-138327011D01*
X159802425Y-138322887D01*
X159717032Y-138150707D01*
X159717030Y-138150704D01*
X159597724Y-138002280D01*
X159597722Y-138002278D01*
X159528112Y-137946324D01*
X159488196Y-137888985D01*
X159485616Y-137819163D01*
X159521194Y-137759030D01*
X159528115Y-137753033D01*
X159597366Y-137697367D01*
X159597367Y-137697366D01*
X159716607Y-137549025D01*
X159716609Y-137549022D01*
X159801168Y-137378523D01*
X159847102Y-137193824D01*
X159850000Y-137151096D01*
X159850000Y-136950000D01*
X156850000Y-136950000D01*
X156850000Y-137151096D01*
X156852897Y-137193824D01*
X156898831Y-137378523D01*
X156983390Y-137549022D01*
X156983392Y-137549025D01*
X157102630Y-137697364D01*
X157171884Y-137753031D01*
X157211803Y-137810375D01*
X157214383Y-137880197D01*
X157178805Y-137940329D01*
X157171885Y-137946326D01*
X157108672Y-137997139D01*
X157102276Y-138002280D01*
X156982969Y-138150704D01*
X156982967Y-138150707D01*
X156898360Y-138321302D01*
X156852400Y-138506107D01*
X156849500Y-138548879D01*
X156849500Y-139451122D01*
X156849501Y-139451125D01*
X156852399Y-139493886D01*
X156852399Y-139493887D01*
X156858033Y-139516540D01*
X156896940Y-139672989D01*
X156898360Y-139678696D01*
X156982967Y-139849292D01*
X156982969Y-139849295D01*
X157102277Y-139997721D01*
X157102278Y-139997722D01*
X157171486Y-140053353D01*
X157211405Y-140110696D01*
X157213985Y-140180518D01*
X157178406Y-140240651D01*
X157171486Y-140246647D01*
X157102278Y-140302277D01*
X157102277Y-140302278D01*
X156982969Y-140450704D01*
X156982967Y-140450707D01*
X156895372Y-140627329D01*
X156893464Y-140626382D01*
X156857869Y-140674410D01*
X156792522Y-140699140D01*
X156783084Y-140699500D01*
X148494691Y-140699500D01*
X148427652Y-140679815D01*
X148407010Y-140663181D01*
X146137363Y-138393534D01*
X146103878Y-138332211D01*
X146108862Y-138262519D01*
X146150734Y-138206586D01*
X146200853Y-138184236D01*
X146205986Y-138183214D01*
X146211835Y-138182051D01*
X146393914Y-138106632D01*
X146557782Y-137997139D01*
X146697139Y-137857782D01*
X146806632Y-137693914D01*
X146882051Y-137511835D01*
X146908175Y-137380501D01*
X146920500Y-137318543D01*
X146920500Y-136248903D01*
X156850000Y-136248903D01*
X156850000Y-136450000D01*
X158100000Y-136450000D01*
X158600000Y-136450000D01*
X159850000Y-136450000D01*
X159850000Y-136248903D01*
X159847102Y-136206175D01*
X159801168Y-136021476D01*
X159716609Y-135850977D01*
X159716607Y-135850974D01*
X159597367Y-135702633D01*
X159597366Y-135702632D01*
X159449025Y-135583392D01*
X159449022Y-135583390D01*
X159278523Y-135498831D01*
X159093824Y-135452897D01*
X159051097Y-135450000D01*
X158600000Y-135450000D01*
X158600000Y-136450000D01*
X158100000Y-136450000D01*
X158100000Y-135450000D01*
X157648903Y-135450000D01*
X157606175Y-135452897D01*
X157421476Y-135498831D01*
X157250977Y-135583390D01*
X157250974Y-135583392D01*
X157102633Y-135702632D01*
X157102632Y-135702633D01*
X156983392Y-135850974D01*
X156983390Y-135850977D01*
X156898831Y-136021476D01*
X156852897Y-136206175D01*
X156850000Y-136248903D01*
X146920500Y-136248903D01*
X146920500Y-136021456D01*
X146882052Y-135828170D01*
X146882051Y-135828169D01*
X146882051Y-135828165D01*
X146882049Y-135828160D01*
X146806635Y-135646092D01*
X146806628Y-135646079D01*
X146697139Y-135482218D01*
X146697136Y-135482214D01*
X146557785Y-135342863D01*
X146557781Y-135342860D01*
X146393920Y-135233371D01*
X146393907Y-135233364D01*
X146211839Y-135157950D01*
X146211829Y-135157947D01*
X146018543Y-135119500D01*
X146018541Y-135119500D01*
X145821459Y-135119500D01*
X145779697Y-135127806D01*
X145710106Y-135121579D01*
X145654929Y-135078715D01*
X145636431Y-135040784D01*
X145601283Y-134919806D01*
X145601282Y-134919803D01*
X145517685Y-134778447D01*
X145517678Y-134778438D01*
X145401561Y-134662321D01*
X145401552Y-134662314D01*
X145260196Y-134578717D01*
X145260193Y-134578716D01*
X145102495Y-134532900D01*
X145102489Y-134532899D01*
X145065649Y-134530000D01*
X144998598Y-134530000D01*
X144931559Y-134510315D01*
X144885804Y-134457511D01*
X144875860Y-134388353D01*
X144904885Y-134324797D01*
X144910910Y-134318326D01*
X145192418Y-134036819D01*
X145253741Y-134003334D01*
X145280099Y-134000500D01*
X146290151Y-134000500D01*
X146337603Y-134009938D01*
X146399764Y-134035687D01*
X146500894Y-134049001D01*
X146508474Y-134049999D01*
X146512280Y-134050500D01*
X146512287Y-134050500D01*
X146837713Y-134050500D01*
X146837720Y-134050500D01*
X146950236Y-134035687D01*
X147090233Y-133977698D01*
X147125515Y-133950624D01*
X147190681Y-133925431D01*
X147259126Y-133939468D01*
X147309116Y-133988282D01*
X147325000Y-134049001D01*
X147325000Y-134050000D01*
X147337683Y-134050000D01*
X147337697Y-134049999D01*
X147450104Y-134035199D01*
X147450108Y-134035198D01*
X147589978Y-133977263D01*
X147710094Y-133885094D01*
X147802263Y-133764978D01*
X147860198Y-133625108D01*
X147860199Y-133625103D01*
X147870088Y-133550000D01*
X147499500Y-133550000D01*
X147490814Y-133547449D01*
X147481853Y-133548738D01*
X147457812Y-133537759D01*
X147432461Y-133530315D01*
X147426533Y-133523474D01*
X147418297Y-133519713D01*
X147404007Y-133497478D01*
X147386706Y-133477511D01*
X147384418Y-133466996D01*
X147380523Y-133460935D01*
X147375500Y-133426000D01*
X147375500Y-133374000D01*
X147395185Y-133306961D01*
X147447989Y-133261206D01*
X147499500Y-133250000D01*
X147870088Y-133250000D01*
X147870088Y-133249999D01*
X147860199Y-133174896D01*
X147860198Y-133174891D01*
X147802263Y-133035021D01*
X147710094Y-132914905D01*
X147589978Y-132822736D01*
X147450108Y-132764801D01*
X147450104Y-132764800D01*
X147337697Y-132750000D01*
X147325000Y-132750000D01*
X147325000Y-132750998D01*
X147321415Y-132763205D01*
X147322477Y-132775882D01*
X147311759Y-132796090D01*
X147305315Y-132818037D01*
X147295701Y-132826366D01*
X147289740Y-132837608D01*
X147269795Y-132848815D01*
X147252511Y-132863792D01*
X147239919Y-132865602D01*
X147228828Y-132871835D01*
X147205993Y-132870480D01*
X147183353Y-132873736D01*
X147170132Y-132868353D01*
X147159081Y-132867698D01*
X147131381Y-132852576D01*
X147127901Y-132851160D01*
X147126679Y-132850268D01*
X147090233Y-132822302D01*
X147085899Y-132820507D01*
X147075901Y-132813210D01*
X147058500Y-132790545D01*
X147038783Y-132769864D01*
X147037008Y-132762551D01*
X147035217Y-132760217D01*
X147025000Y-132750000D01*
X147012308Y-132750000D01*
X146943097Y-132759111D01*
X146910729Y-132759111D01*
X146837722Y-132749500D01*
X146837720Y-132749500D01*
X146512280Y-132749500D01*
X146512272Y-132749500D01*
X146399764Y-132764313D01*
X146399763Y-132764313D01*
X146337604Y-132790061D01*
X146290151Y-132799500D01*
X145066671Y-132799500D01*
X145066655Y-132799499D01*
X145059059Y-132799499D01*
X144900944Y-132799499D01*
X144831761Y-132818037D01*
X144748215Y-132840423D01*
X144748210Y-132840426D01*
X144611291Y-132919475D01*
X144611283Y-132919481D01*
X143037584Y-134493181D01*
X142976261Y-134526666D01*
X142949903Y-134529500D01*
X142737272Y-134529500D01*
X142650393Y-134540938D01*
X142624764Y-134544313D01*
X142624762Y-134544313D01*
X142616708Y-134545374D01*
X142616316Y-134542399D01*
X142583684Y-134542399D01*
X142583292Y-134545374D01*
X142575237Y-134544313D01*
X142575236Y-134544313D01*
X142542392Y-134539989D01*
X142462727Y-134529500D01*
X142462720Y-134529500D01*
X142237280Y-134529500D01*
X142237272Y-134529500D01*
X142150393Y-134540938D01*
X142124764Y-134544313D01*
X142124762Y-134544313D01*
X142116708Y-134545374D01*
X142116316Y-134542399D01*
X142083684Y-134542399D01*
X142083292Y-134545374D01*
X142075237Y-134544313D01*
X142075236Y-134544313D01*
X142042392Y-134539989D01*
X141962727Y-134529500D01*
X141962720Y-134529500D01*
X141737280Y-134529500D01*
X141737272Y-134529500D01*
X141650393Y-134540938D01*
X141624764Y-134544313D01*
X141624762Y-134544313D01*
X141616708Y-134545374D01*
X141616316Y-134542399D01*
X141583684Y-134542399D01*
X141583292Y-134545374D01*
X141575237Y-134544313D01*
X141575236Y-134544313D01*
X141542392Y-134539989D01*
X141462727Y-134529500D01*
X141462720Y-134529500D01*
X141237280Y-134529500D01*
X141237272Y-134529500D01*
X141150393Y-134540938D01*
X141124764Y-134544313D01*
X141124762Y-134544313D01*
X141116708Y-134545374D01*
X141116316Y-134542399D01*
X141083684Y-134542399D01*
X141083292Y-134545374D01*
X141075237Y-134544313D01*
X141075236Y-134544313D01*
X141042392Y-134539989D01*
X140962727Y-134529500D01*
X140962720Y-134529500D01*
X140782508Y-134529500D01*
X140715469Y-134509815D01*
X140694827Y-134493181D01*
X139440000Y-133238355D01*
X139439998Y-133238352D01*
X139321127Y-133119481D01*
X139321126Y-133119480D01*
X139234314Y-133069360D01*
X139234314Y-133069359D01*
X139234310Y-133069358D01*
X139184195Y-133040423D01*
X139031467Y-132999499D01*
X138873353Y-132999499D01*
X138865757Y-132999499D01*
X138865741Y-132999500D01*
X137309849Y-132999500D01*
X137262396Y-132990061D01*
X137200236Y-132964313D01*
X137186171Y-132962461D01*
X137087727Y-132949500D01*
X137087720Y-132949500D01*
X136762280Y-132949500D01*
X136762278Y-132949500D01*
X136701751Y-132957467D01*
X136701742Y-132957469D01*
X136649764Y-132964313D01*
X136509767Y-133022302D01*
X136505916Y-133025256D01*
X136505915Y-133025257D01*
X136474486Y-133049374D01*
X136409317Y-133074568D01*
X136340872Y-133060530D01*
X136290883Y-133011716D01*
X136275000Y-132950998D01*
X136275000Y-132950000D01*
X136262302Y-132950000D01*
X136149895Y-132964800D01*
X136149891Y-132964801D01*
X136010021Y-133022736D01*
X135889905Y-133114905D01*
X135797736Y-133235021D01*
X135739801Y-133374891D01*
X135739800Y-133374896D01*
X135729911Y-133449999D01*
X135729912Y-133450000D01*
X136100500Y-133450000D01*
X136109185Y-133452550D01*
X136118147Y-133451262D01*
X136142187Y-133462240D01*
X136167539Y-133469685D01*
X136173466Y-133476525D01*
X136181703Y-133480287D01*
X136195992Y-133502521D01*
X136213294Y-133522489D01*
X136215581Y-133533003D01*
X136219477Y-133539065D01*
X136224500Y-133574000D01*
X136224500Y-133626000D01*
X136204815Y-133693039D01*
X136152011Y-133738794D01*
X136100500Y-133750000D01*
X135729912Y-133750000D01*
X135739800Y-133825103D01*
X135739801Y-133825108D01*
X135797736Y-133964978D01*
X135889905Y-134085094D01*
X136010021Y-134177263D01*
X136149891Y-134235198D01*
X136149895Y-134235199D01*
X136262302Y-134249999D01*
X136262317Y-134250000D01*
X136275000Y-134250000D01*
X136275000Y-134249001D01*
X136278584Y-134236793D01*
X136277523Y-134224117D01*
X136288240Y-134203908D01*
X136294685Y-134181962D01*
X136304299Y-134173631D01*
X136310260Y-134162391D01*
X136330204Y-134151183D01*
X136347489Y-134136207D01*
X136360080Y-134134396D01*
X136371172Y-134128164D01*
X136394006Y-134129518D01*
X136416647Y-134126263D01*
X136429867Y-134131645D01*
X136440919Y-134132301D01*
X136468619Y-134147422D01*
X136472099Y-134148839D01*
X136473293Y-134149710D01*
X136509767Y-134177698D01*
X136514103Y-134179494D01*
X136524099Y-134186789D01*
X136541495Y-134209449D01*
X136561213Y-134230127D01*
X136562988Y-134237444D01*
X136564786Y-134239786D01*
X136575000Y-134250000D01*
X136587691Y-134250000D01*
X136656899Y-134240888D01*
X136689270Y-134240888D01*
X136746354Y-134248403D01*
X136758474Y-134249999D01*
X136762280Y-134250500D01*
X136762287Y-134250500D01*
X137087713Y-134250500D01*
X137087720Y-134250500D01*
X137200236Y-134235687D01*
X137262396Y-134209938D01*
X137309849Y-134200500D01*
X138652313Y-134200500D01*
X138719352Y-134220185D01*
X138739994Y-134236819D01*
X138856216Y-134353041D01*
X138858490Y-134357205D01*
X138862477Y-134359784D01*
X138875078Y-134387584D01*
X138889701Y-134414364D01*
X138889362Y-134419097D01*
X138891322Y-134423421D01*
X138886893Y-134453615D01*
X138884717Y-134484056D01*
X138881872Y-134487855D01*
X138881184Y-134492551D01*
X138861133Y-134515558D01*
X138842845Y-134539989D01*
X138837536Y-134542637D01*
X138835280Y-134545226D01*
X138803134Y-134559797D01*
X138783703Y-134565443D01*
X138714509Y-134565444D01*
X138602494Y-134532900D01*
X138602497Y-134532900D01*
X138600000Y-134532703D01*
X138600000Y-134608691D01*
X138580315Y-134675730D01*
X138563681Y-134696372D01*
X138481923Y-134778129D01*
X138481917Y-134778137D01*
X138398255Y-134919603D01*
X138398254Y-134919606D01*
X138352402Y-135077426D01*
X138352401Y-135077432D01*
X138349500Y-135114298D01*
X138349500Y-135510994D01*
X138339957Y-135543492D01*
X138330994Y-135576163D01*
X138330138Y-135576931D01*
X138329815Y-135578033D01*
X138304234Y-135600198D01*
X138279014Y-135622852D01*
X138277878Y-135623035D01*
X138277011Y-135623788D01*
X138243488Y-135628608D01*
X138210044Y-135634027D01*
X138208990Y-135633568D01*
X138207853Y-135633732D01*
X138177038Y-135619659D01*
X138145981Y-135606140D01*
X138144969Y-135605014D01*
X138144297Y-135604707D01*
X138122398Y-135579885D01*
X138120895Y-135577636D01*
X138100020Y-135510960D01*
X138100000Y-135508749D01*
X138100000Y-134532703D01*
X138097503Y-134532900D01*
X137939806Y-134578716D01*
X137939803Y-134578717D01*
X137798447Y-134662314D01*
X137798438Y-134662321D01*
X137682321Y-134778438D01*
X137682314Y-134778447D01*
X137598717Y-134919803D01*
X137598716Y-134919804D01*
X137563568Y-135040785D01*
X137525961Y-135099670D01*
X137462489Y-135128876D01*
X137420301Y-135127806D01*
X137378545Y-135119500D01*
X137378541Y-135119500D01*
X137181459Y-135119500D01*
X137181457Y-135119500D01*
X136988170Y-135157947D01*
X136988160Y-135157950D01*
X136806092Y-135233364D01*
X136806079Y-135233371D01*
X136642218Y-135342860D01*
X136642214Y-135342863D01*
X136502863Y-135482214D01*
X136502860Y-135482218D01*
X136393371Y-135646079D01*
X136393364Y-135646092D01*
X136317950Y-135828160D01*
X136317947Y-135828170D01*
X136279500Y-136021456D01*
X136279500Y-136021459D01*
X136279500Y-137318541D01*
X136279500Y-137318543D01*
X136279499Y-137318543D01*
X136317947Y-137511829D01*
X136317950Y-137511839D01*
X136393364Y-137693907D01*
X136393371Y-137693920D01*
X136502860Y-137857781D01*
X136502863Y-137857785D01*
X136642214Y-137997136D01*
X136642218Y-137997139D01*
X136806079Y-138106628D01*
X136806092Y-138106635D01*
X136912493Y-138150707D01*
X136988165Y-138182051D01*
X136988169Y-138182051D01*
X136988170Y-138182052D01*
X137181456Y-138220500D01*
X137181459Y-138220500D01*
X137378543Y-138220500D01*
X137520029Y-138192356D01*
X137571835Y-138182051D01*
X137753914Y-138106632D01*
X137917782Y-137997139D01*
X138057139Y-137857782D01*
X138166632Y-137693914D01*
X138166631Y-137693914D01*
X138170017Y-137688848D01*
X138171474Y-137689821D01*
X138214595Y-137645903D01*
X138282729Y-137630426D01*
X138348414Y-137654242D01*
X138350502Y-137655809D01*
X138356632Y-137660512D01*
X138356635Y-137660515D01*
X138487865Y-137736281D01*
X138634234Y-137775500D01*
X138634236Y-137775500D01*
X138785764Y-137775500D01*
X138785766Y-137775500D01*
X138932135Y-137736281D01*
X139063365Y-137660515D01*
X139170515Y-137553365D01*
X139246281Y-137422135D01*
X139246281Y-137422134D01*
X139250345Y-137415096D01*
X139251865Y-137415973D01*
X139289459Y-137369312D01*
X139355750Y-137347240D01*
X139392281Y-137351384D01*
X139500943Y-137380501D01*
X139500946Y-137380501D01*
X139666653Y-137380501D01*
X139666669Y-137380500D01*
X143090499Y-137380500D01*
X143157538Y-137400185D01*
X143203293Y-137452989D01*
X143214499Y-137504500D01*
X143214499Y-137558648D01*
X143214498Y-137558648D01*
X143255423Y-137711379D01*
X143277433Y-137749501D01*
X143277432Y-137749501D01*
X143277433Y-137749502D01*
X143334475Y-137848303D01*
X143334479Y-137848308D01*
X143334480Y-137848310D01*
X143446284Y-137960114D01*
X143446285Y-137960115D01*
X143841690Y-138355520D01*
X143841692Y-138355521D01*
X143841696Y-138355524D01*
X143917866Y-138399500D01*
X143978622Y-138434577D01*
X144131349Y-138475501D01*
X144131351Y-138475501D01*
X144297060Y-138475501D01*
X144297076Y-138475500D01*
X144469497Y-138475500D01*
X144536536Y-138495185D01*
X144557178Y-138511819D01*
X145500576Y-139455217D01*
X145534061Y-139516540D01*
X145529077Y-139586232D01*
X145487205Y-139642165D01*
X145460354Y-139657456D01*
X145446096Y-139663362D01*
X145446079Y-139663371D01*
X145282218Y-139772860D01*
X145282214Y-139772863D01*
X145142863Y-139912214D01*
X145142860Y-139912218D01*
X145033371Y-140076079D01*
X145033364Y-140076092D01*
X144957950Y-140258160D01*
X144957947Y-140258170D01*
X144919500Y-140451456D01*
X144919500Y-140451459D01*
X144919500Y-141248541D01*
X144919500Y-141248543D01*
X144919499Y-141248543D01*
X144957947Y-141441829D01*
X144957950Y-141441839D01*
X145033364Y-141623907D01*
X145033371Y-141623920D01*
X145142860Y-141787781D01*
X145142863Y-141787785D01*
X145282214Y-141927136D01*
X145282218Y-141927139D01*
X145446079Y-142036628D01*
X145446092Y-142036635D01*
X145628160Y-142112049D01*
X145628165Y-142112051D01*
X145628169Y-142112051D01*
X145628170Y-142112052D01*
X145821456Y-142150500D01*
X145821459Y-142150500D01*
X146018543Y-142150500D01*
X146148582Y-142124632D01*
X146211835Y-142112051D01*
X146393914Y-142036632D01*
X146557782Y-141927139D01*
X146697139Y-141787782D01*
X146806632Y-141623914D01*
X146882051Y-141441835D01*
X146920500Y-141248541D01*
X146920500Y-141174503D01*
X146940185Y-141107464D01*
X146992989Y-141061709D01*
X147062147Y-141051765D01*
X147125703Y-141080790D01*
X147132181Y-141086822D01*
X147709733Y-141664374D01*
X147709743Y-141664385D01*
X147714073Y-141668715D01*
X147714074Y-141668716D01*
X147825878Y-141780520D01*
X147825880Y-141780521D01*
X147825884Y-141780524D01*
X147962803Y-141859573D01*
X147962810Y-141859577D01*
X148074613Y-141889534D01*
X148115536Y-141900500D01*
X148115537Y-141900500D01*
X156783084Y-141900500D01*
X156850123Y-141920185D01*
X156895878Y-141972989D01*
X156897574Y-141977112D01*
X156982967Y-142149292D01*
X156982969Y-142149295D01*
X157102277Y-142297721D01*
X157102278Y-142297722D01*
X157250704Y-142417030D01*
X157250707Y-142417032D01*
X157421302Y-142501639D01*
X157421303Y-142501639D01*
X157421307Y-142501641D01*
X157606111Y-142547600D01*
X157648877Y-142550500D01*
X159051122Y-142550499D01*
X159093889Y-142547600D01*
X159278693Y-142501641D01*
X159449296Y-142417030D01*
X159597722Y-142297722D01*
X159717030Y-142149296D01*
X159801641Y-141978693D01*
X159847600Y-141793889D01*
X159850500Y-141751123D01*
X159850499Y-140848878D01*
X159847600Y-140806111D01*
X159801641Y-140621307D01*
X159720667Y-140458037D01*
X159717032Y-140450707D01*
X159717030Y-140450704D01*
X159597722Y-140302278D01*
X159597721Y-140302277D01*
X159528514Y-140246647D01*
X159488595Y-140189304D01*
X159486015Y-140119482D01*
X159521594Y-140059349D01*
X159528514Y-140053353D01*
X159537909Y-140045800D01*
X159597722Y-139997722D01*
X159717030Y-139849296D01*
X159736271Y-139810500D01*
X159804628Y-139672671D01*
X159806535Y-139673617D01*
X159842131Y-139625590D01*
X159907478Y-139600860D01*
X159916916Y-139600500D01*
X163025501Y-139600500D01*
X163092540Y-139620185D01*
X163138295Y-139672989D01*
X163149501Y-139724500D01*
X163149501Y-140458034D01*
X163160113Y-140577415D01*
X163216089Y-140773045D01*
X163216090Y-140773048D01*
X163216091Y-140773049D01*
X163310302Y-140953407D01*
X163310304Y-140953409D01*
X163438890Y-141111109D01*
X163532803Y-141187684D01*
X163596593Y-141239698D01*
X163776951Y-141333909D01*
X163972582Y-141389886D01*
X164091963Y-141400500D01*
X165208036Y-141400499D01*
X165327418Y-141389886D01*
X165523049Y-141333909D01*
X165703407Y-141239698D01*
X165861109Y-141111109D01*
X165989698Y-140953407D01*
X166083909Y-140773049D01*
X166139886Y-140577418D01*
X166150500Y-140458037D01*
X166150500Y-139724500D01*
X166153050Y-139715814D01*
X166151762Y-139706853D01*
X166162740Y-139682812D01*
X166170185Y-139657461D01*
X166177025Y-139651533D01*
X166180787Y-139643297D01*
X166203021Y-139629007D01*
X166222989Y-139611706D01*
X166233503Y-139609418D01*
X166239565Y-139605523D01*
X166274500Y-139600500D01*
X166333334Y-139600500D01*
X166400373Y-139620185D01*
X166421016Y-139636820D01*
X166464307Y-139680112D01*
X166464311Y-139680115D01*
X166464313Y-139680117D01*
X166603605Y-139762494D01*
X166639285Y-139772860D01*
X166759002Y-139807642D01*
X166759005Y-139807642D01*
X166759007Y-139807643D01*
X166795310Y-139810500D01*
X166909903Y-139810500D01*
X166939343Y-139819144D01*
X166969330Y-139825668D01*
X166974345Y-139829422D01*
X166976942Y-139830185D01*
X166997584Y-139846819D01*
X167125139Y-139974374D01*
X167125149Y-139974385D01*
X167129479Y-139978715D01*
X167129480Y-139978716D01*
X167241284Y-140090520D01*
X167276231Y-140110696D01*
X167328095Y-140140639D01*
X167328097Y-140140641D01*
X167378213Y-140169576D01*
X167378215Y-140169577D01*
X167530942Y-140210500D01*
X167530943Y-140210500D01*
X168199465Y-140210500D01*
X168199481Y-140210501D01*
X168207077Y-140210501D01*
X168365188Y-140210501D01*
X168365191Y-140210501D01*
X168517919Y-140169577D01*
X168568038Y-140140639D01*
X168654850Y-140090520D01*
X168766654Y-139978716D01*
X168766654Y-139978714D01*
X168776862Y-139968507D01*
X168776864Y-139968504D01*
X182218506Y-126526862D01*
X182218511Y-126526858D01*
X182228714Y-126516654D01*
X182228716Y-126516654D01*
X182340520Y-126404850D01*
X182419577Y-126267918D01*
X182460500Y-126115191D01*
X182460500Y-78004778D01*
X182480185Y-77937739D01*
X182532989Y-77891984D01*
X182602147Y-77882040D01*
X182646500Y-77897391D01*
X182667606Y-77909577D01*
X182820333Y-77950501D01*
X182820335Y-77950501D01*
X182986044Y-77950501D01*
X182986060Y-77950500D01*
X187502971Y-77950500D01*
X187502975Y-77950501D01*
X187661090Y-77950500D01*
X187813817Y-77909577D01*
X187883999Y-77869057D01*
X187920697Y-77847870D01*
X187950741Y-77830524D01*
X187950740Y-77830524D01*
X187950748Y-77830520D01*
X188062552Y-77718716D01*
X188062552Y-77718714D01*
X188072756Y-77708511D01*
X188072760Y-77708505D01*
X188848506Y-76932758D01*
X188848511Y-76932755D01*
X188858714Y-76922551D01*
X188858716Y-76922551D01*
X188970520Y-76810747D01*
X189023943Y-76718215D01*
X189025800Y-76715000D01*
X189049574Y-76673821D01*
X189049573Y-76673821D01*
X189049577Y-76673816D01*
X189090500Y-76521088D01*
X189090500Y-76362974D01*
X189090500Y-68857638D01*
X189090501Y-68857625D01*
X189090501Y-68689522D01*
X189090501Y-68689521D01*
X189049577Y-68536794D01*
X188990518Y-68434500D01*
X188970524Y-68399868D01*
X188970518Y-68399860D01*
X166079012Y-45508355D01*
X166079010Y-45508352D01*
X165960139Y-45389481D01*
X165960138Y-45389480D01*
X165873326Y-45339360D01*
X165873326Y-45339359D01*
X165873322Y-45339358D01*
X165823207Y-45310423D01*
X165670479Y-45269499D01*
X165512365Y-45269499D01*
X165504769Y-45269499D01*
X165504753Y-45269500D01*
X117587635Y-45269500D01*
X117429521Y-45269500D01*
X117276793Y-45310423D01*
X117276792Y-45310423D01*
X117276790Y-45310424D01*
X117276787Y-45310425D01*
X117226674Y-45339359D01*
X117226673Y-45339360D01*
X117183267Y-45364420D01*
X117139863Y-45389479D01*
X117139860Y-45389481D01*
X116869481Y-45659860D01*
X116869479Y-45659863D01*
X116819361Y-45746672D01*
X116819359Y-45746674D01*
X116790425Y-45796787D01*
X116790424Y-45796788D01*
X116790423Y-45796793D01*
X116749499Y-45949521D01*
X116749499Y-45949523D01*
X116749499Y-46117624D01*
X116749500Y-46117637D01*
X116749500Y-75539676D01*
X116749499Y-75539694D01*
X116749499Y-75705400D01*
X116749498Y-75705400D01*
X116310426Y-75705400D01*
X116323182Y-44493723D01*
X116342894Y-44426694D01*
X116395717Y-44380961D01*
X116447229Y-44369776D01*
X189961471Y-44399820D01*
G37*
%TD.AperFunction*%
%TD*%
M02*
