%TF.GenerationSoftware,KiCad,Pcbnew,10.0.3*%
%TF.CreationDate,2026-06-28T19:16:54-04:00*%
%TF.ProjectId,spectrum_analyzer,73706563-7472-4756-9d5f-616e616c797a,rev?*%
%TF.SameCoordinates,Original*%
%TF.FileFunction,Other,User*%
%FSLAX46Y46*%
G04 Gerber Fmt 4.6, Leading zero omitted, Abs format (unit mm)*
G04 Created by KiCad (PCBNEW 10.0.3) date 2026-06-28 19:16:54*
%MOMM*%
%LPD*%
G01*
G04 APERTURE LIST*
%ADD10C,0.050000*%
G04 APERTURE END LIST*
%TO.C,R1*%
D10*
X130500000Y-69725000D02*
X131100000Y-69725000D01*
X131100000Y-70925000D01*
X130500000Y-70925000D01*
X130500000Y-69725000D01*
%TO.C,C3*%
X179540000Y-71170000D02*
X180460000Y-71170000D01*
X180460000Y-72990000D01*
X179540000Y-72990000D01*
X179540000Y-71170000D01*
%TO.C,R2*%
X136075000Y-133300000D02*
X137275000Y-133300000D01*
X137275000Y-133900000D01*
X136075000Y-133900000D01*
X136075000Y-133300000D01*
%TO.C,U2*%
X117550000Y-45970000D02*
X117550000Y-66910000D01*
X117550000Y-66910000D02*
X131800000Y-66910000D01*
X131800000Y-87220000D02*
X131800000Y-66910000D01*
X131800000Y-87220000D02*
X151300000Y-87220000D01*
X151300000Y-66910000D02*
X151300000Y-87220000D01*
X151300000Y-66910000D02*
X165550000Y-66910000D01*
X165550000Y-45970000D02*
X117550000Y-45970000D01*
X165550000Y-66910000D02*
X165550000Y-45970000D01*
%TO.C,J2*%
X136280000Y-134530000D02*
X136280000Y-143950000D01*
X136280000Y-134530000D02*
X146920000Y-134530000D01*
X136280000Y-143950000D02*
X146920000Y-143950000D01*
X146920000Y-134530000D02*
X146920000Y-143950000D01*
%TO.C,U3*%
X176880000Y-74050000D02*
X189380000Y-74050000D01*
X189380000Y-112550000D01*
X176880000Y-112550000D01*
X176880000Y-74050000D01*
%TO.C,C1*%
X118140000Y-69490000D02*
X119060000Y-69490000D01*
X119060000Y-71310000D01*
X118140000Y-71310000D01*
X118140000Y-69490000D01*
%TO.C,U1*%
X157100000Y-135400000D02*
X157100000Y-142600000D01*
X157100000Y-142600000D02*
X165900000Y-142600000D01*
X165900000Y-135400000D02*
X157100000Y-135400000D01*
X165900000Y-142600000D02*
X165900000Y-135400000D01*
%TO.C,C2*%
X166570000Y-138540000D02*
X168390000Y-138540000D01*
X168390000Y-139460000D01*
X166570000Y-139460000D01*
X166570000Y-138540000D01*
%TO.C,J1*%
X116830000Y-73480000D02*
X120370000Y-73480000D01*
X120370000Y-89720000D01*
X116830000Y-89720000D01*
X116830000Y-73480000D01*
%TO.C,R3*%
X146325000Y-133100000D02*
X147525000Y-133100000D01*
X147525000Y-133700000D01*
X146325000Y-133700000D01*
X146325000Y-133100000D01*
%TD*%
M02*
